<svg xmlns="http://www.w3.org/2000/svg" width="360" height="244" fill="none"><g clip-path="url(#a)"><rect width="357.348" height="241.348" x="1.326" y="1.326" fill="#08003A" stroke="#1600A9" stroke-width="2.652" rx="5.304"/><path fill="#1600A9" fill-rule="evenodd" d="M305 83.42H0v-2.608h305v2.607Z" clip-rule="evenodd"/><path fill="#FF206E" fill-rule="evenodd" d="M335.831 40.571H24.169c-.575 0-1.042.384-1.042.858V64.57c0 .474.467.858 1.042.858h311.662c.575 0 1.042-.384 1.042-.858V41.43c0-.474-.467-.858-1.042-.858ZM24.169 38C21.867 38 20 39.535 20 41.429V64.57C20 66.465 21.867 68 24.17 68H335.83c2.302 0 4.169-1.535 4.169-3.429V41.43c0-1.894-1.867-3.429-4.169-3.429H24.169Z" clip-rule="evenodd"/><path fill="#D8DEE5" d="M28 18a4 4 0 1 1-8 0 4 4 0 0 1 8 0ZM42 18a4 4 0 1 1-8 0 4 4 0 0 1 8 0Z"/><path fill="#D8DEE5" fill-rule="evenodd" d="M52 20.4a2.4 2.4 0 1 0 0-4.8 2.4 2.4 0 0 0 0 4.8Zm0 1.6a4 4 0 1 0 0-8 4 4 0 0 0 0 8Z" clip-rule="evenodd"/><rect width="252" height="126" x="20" y="98" fill="#B8C3D2" opacity=".2" rx="4"/><path fill="#B8C3D2" d="M286 100.177c0-1.202 1.944-2.177 4.342-2.177h45.316c2.398 0 4.342.975 4.342 2.177v22.646c0 1.202-1.944 2.177-4.342 2.177h-45.316c-2.398 0-4.342-.975-4.342-2.177v-22.646ZM286 133.177c0-1.202 1.944-2.177 4.342-2.177h45.316c2.398 0 4.342.975 4.342 2.177v22.646c0 1.202-1.944 2.177-4.342 2.177h-45.316c-2.398 0-4.342-.975-4.342-2.177v-22.646ZM286 166.177c0-1.202 1.944-2.177 4.342-2.177h45.316c2.398 0 4.342.975 4.342 2.177v22.646c0 1.202-1.944 2.177-4.342 2.177h-45.316c-2.398 0-4.342-.975-4.342-2.177v-22.646ZM286 199.177c0-1.202 1.944-2.177 4.342-2.177h45.316c2.398 0 4.342.975 4.342 2.177v22.646c0 1.202-1.944 2.177-4.342 2.177h-45.316c-2.398 0-4.342-.975-4.342-2.177v-22.646Z" opacity=".2"/><g filter="url(#b)"><path fill="#fff" fill-rule="evenodd" d="M317.278 61.386c.685 0 1.242-.556 1.242-1.242v-3.902a1.242 1.242 0 0 0-2.484 0v3.902c0 .686.556 1.242 1.242 1.242Zm-8.584-2.692a1.242 1.242 0 0 1 1.756 0l2.759 2.76a1.242 1.242 0 1 1-1.756 1.756l-2.759-2.76a1.242 1.242 0 0 1 0-1.756Zm25.68 20.321 7.389 7.39a1.242 1.242 0 0 1 0 1.755l-3.605 3.607a1.242 1.242 0 0 1-1.756 0l-7.389-7.39-3.045 5.272a1.24 1.24 0 0 1-2.228-.161l-9.376-23.51a1.241 1.241 0 0 1 1.613-1.613l23.508 9.377a1.242 1.242 0 0 1 .161 2.228l-5.272 3.045Zm-22.989-11.736c0-.686-.556-1.242-1.241-1.242h-3.902a1.242 1.242 0 1 0 0 2.484h3.902c.685 0 1.241-.556 1.241-1.242Zm-3.262 6.591 2.759-2.76a1.242 1.242 0 0 1 1.756 1.757l-2.759 2.76a1.24 1.24 0 0 1-1.756 0 1.242 1.242 0 0 1 0-1.757Zm14.743-11.232a1.239 1.239 0 0 1-1.756 0 1.242 1.242 0 0 1 0-1.756l2.759-2.759a1.242 1.242 0 0 1 1.756 1.756l-2.759 2.76Z" clip-rule="evenodd"/><path fill="#D9E7F7" d="m310.45 58.694.094-.093-.094.093Zm-1.756 0-.093-.093.093.093Zm4.515 2.76-.094.093.094-.093Zm0 1.756.094.093-.094-.093Zm-1.756 0-.093.093.093-.093Zm-2.759-2.76-.093.094.093-.093Zm33.069 25.954-.094.094.094-.094Zm-7.389-7.389-.066-.115-.15.087.122.122.094-.094Zm7.389 9.145.094.094-.094-.094Zm-3.605 3.607-.094-.094.094.094Zm-1.756 0 .093-.094-.093.094Zm-7.389-7.39.094-.094-.122-.122-.087.15.115.066Zm-3.045 5.272-.115-.067.115.067Zm-1.164.617.009-.132-.009.132Zm-1.064-.778-.124.049.124-.05Zm-9.376-23.51.123-.05-.123.05Zm.275-1.338-.093-.094.093.094Zm1.338-.275-.049.123.049-.123Zm23.508 9.377-.05.123h.001l.049-.123Zm.778 1.064-.132.01.132-.01Zm-.617 1.164-.067-.115.067.115Zm-29.502-7.45v.133-.132Zm.738 2.59-.094-.093.094.094Zm-2.759 2.76-.094-.094.094.094Zm4.515-2.76.094-.093-.094.094Zm0 1.757.094.094-.094-.094Zm-2.759 2.76-.094-.095.094.094Zm-1.756 0-.094.093.094-.094Zm14.743-12.989.094.094-.094-.094Zm-1.756 0-.094.094.094-.094Zm0-1.756.094.094-.094-.094Zm2.759-2.759-.094-.094.094.094Zm1.756 0 .093-.094-.093.094Zm0 1.756-.094-.094.094.094Zm-7.238.265a1.11 1.11 0 0 1-1.109 1.11v.264c.759 0 1.374-.615 1.374-1.374h-.265Zm0-3.902v3.902h.265v-3.902h-.265Zm-1.109-1.11a1.11 1.11 0 0 1 1.109 1.11h.265c0-.76-.615-1.375-1.374-1.375v.266Zm-1.109 1.11c0-.613.496-1.11 1.109-1.11v-.265c-.759 0-1.375.616-1.375 1.375h.266Zm0 3.902v-3.902h-.266v3.902h.266Zm1.109 1.11a1.109 1.109 0 0 1-1.109-1.11h-.266c0 .759.616 1.374 1.375 1.374v-.265Zm-6.734-2.653a1.374 1.374 0 0 0-1.943 0l.187.187a1.11 1.11 0 0 1 1.569 0l.187-.187Zm2.759 2.759-2.759-2.76-.187.188 2.758 2.76.188-.188Zm0 1.943a1.374 1.374 0 0 0 0-1.943l-.188.187a1.108 1.108 0 0 1 0 1.569l.188.187Zm-.972.403c.352 0 .704-.134.972-.403l-.188-.187c-.216.216-.5.325-.784.325v.265Zm-.971-.403c.268.269.62.403.971.403v-.265c-.284 0-.567-.109-.784-.325l-.187.187Zm-2.759-2.759 2.759 2.76.187-.188-2.759-2.76-.187.188Zm0-1.943a1.374 1.374 0 0 0 0 1.943l.187-.187a1.11 1.11 0 0 1 0-1.569l-.187-.187Zm33.256 27.71-7.389-7.39-.188.188 7.389 7.39.188-.188Zm0 1.943a1.374 1.374 0 0 0 0-1.943l-.188.187c.434.433.434 1.136.001 1.569l.187.187Zm-3.606 3.606 3.606-3.606-.187-.187-3.606 3.606.187.187Zm-.971.403c.364 0 .714-.145.971-.403l-.187-.187c-.208.208-.49.325-.784.325v.265Zm-.972-.403c.258.258.607.403.972.403v-.265c-.294 0-.577-.117-.785-.325l-.187.187Zm-7.389-7.389 7.389 7.39.187-.188-7.388-7.39-.188.188Zm-2.836 5.244 3.045-5.272-.23-.132-3.045 5.271.23.133Zm-1.289.683a1.373 1.373 0 0 0 1.289-.683l-.23-.132a1.107 1.107 0 0 1-1.04.55l-.019.266Zm-1.178-.861c.195.489.653.823 1.178.861l.019-.264c-.424-.03-.793-.3-.95-.695l-.247.098Zm-9.375-23.51 9.375 23.51.247-.098-9.376-23.51-.246.098Zm.305-1.481c-.389.388-.509.97-.305 1.48l.246-.097a1.11 1.11 0 0 1 .246-1.196l-.187-.187Zm1.48-.305a1.373 1.373 0 0 0-1.48.305l.187.188a1.11 1.11 0 0 1 1.195-.246l.098-.247Zm23.508 9.377-23.508-9.377-.098.247 23.507 9.377.099-.246Zm.861 1.178a1.374 1.374 0 0 0-.861-1.178l-.098.247c.394.157.664.526.695.95l.264-.019Zm-.683 1.289c.456-.263.721-.764.683-1.289l-.264.02a1.11 1.11 0 0 1-.552 1.04l.133.229Zm-5.272 3.045 5.272-3.045-.133-.23-5.271 3.045.132.23Zm-24.296-12.96a1.11 1.11 0 0 1 1.109 1.109h.265c0-.76-.615-1.374-1.374-1.374v.265Zm-3.902 0h3.902v-.266h-3.902v.266Zm-1.109 1.109c0-.613.496-1.11 1.109-1.11v-.264c-.759 0-1.375.615-1.375 1.374h.266Zm1.109 1.109a1.109 1.109 0 0 1-1.109-1.11h-.266c0 .76.616 1.375 1.375 1.375v-.265Zm3.902 0h-3.902v.265h3.902v-.265Zm1.109-1.11a1.11 1.11 0 0 1-1.109 1.11v.265c.759 0 1.374-.615 1.374-1.374h-.265Zm-.465 3.74-2.759 2.758.187.188 2.76-2.76-.188-.187Zm1.944 0a1.375 1.375 0 0 0-1.944-.001l.188.188a1.109 1.109 0 0 1 1.568 0l.188-.188Zm0 1.943a1.376 1.376 0 0 0 0-1.944l-.188.188a1.11 1.11 0 0 1 0 1.568l.188.188Zm-2.76 2.759 2.76-2.76-.188-.187-2.759 2.76.187.187Zm-.971.402c.351 0 .703-.134.971-.402l-.187-.188c-.217.217-.5.325-.784.325v.265Zm-.972-.402c.268.268.62.402.972.402v-.265c-.284 0-.568-.108-.785-.325l-.187.188Zm0-1.944a1.374 1.374 0 0 0 0 1.944l.187-.188a1.11 1.11 0 0 1 0-1.568l-.187-.188Zm13.959-10.641c.351 0 .703-.135.972-.403l-.188-.188c-.217.217-.5.325-.784.325v.266Zm-.972-.403c.268.268.62.403.972.403v-.266c-.284 0-.568-.108-.785-.325l-.187.188Zm0-1.944a1.374 1.374 0 0 0 0 1.944l.187-.188a1.108 1.108 0 0 1 .001-1.568l-.188-.188Zm2.759-2.759-2.759 2.76.188.187 2.758-2.76-.187-.187Zm1.943 0a1.374 1.374 0 0 0-1.943 0l.187.188a1.11 1.11 0 0 1 1.569 0l.187-.188Zm0 1.944a1.374 1.374 0 0 0 0-1.944l-.187.188a1.11 1.11 0 0 1 0 1.568l.187.188Zm-2.758 2.759 2.758-2.76-.187-.187-2.759 2.76.188.187Z"/></g><path fill="#D7DDE5" d="M31.207 60V46.986h2.729v3.193l-.13 1.652c.346-.31.749-.594 1.207-.854.47-.272 1.015-.408 1.633-.408 1.003 0 1.727.334 2.172 1.002.458.656.687 1.56.687 2.71V60h-2.729v-5.365c0-.669-.093-1.127-.278-1.374-.173-.248-.458-.372-.854-.372a1.6 1.6 0 0 0-.891.242c-.248.148-.52.365-.817.65V60h-2.73Zm14.152.223c-1.139 0-1.956-.328-2.45-.984-.483-.656-.725-1.516-.725-2.58v-3.732h-1.262v-2.024l1.41-.111.316-2.451h2.265v2.45h2.21v2.136h-2.21v3.694c0 .52.105.897.316 1.133.223.222.514.334.872.334.149 0 .297-.019.446-.056.16-.037.303-.08.427-.13l.427 1.987a9.736 9.736 0 0 1-.873.222 5.436 5.436 0 0 1-1.17.112Zm6.744 0c-1.139 0-1.955-.328-2.45-.984-.483-.656-.724-1.516-.724-2.58v-3.732h-1.263v-2.024l1.411-.111.316-2.451h2.265v2.45h2.209v2.136h-2.21v3.694c0 .52.106.897.316 1.133.223.222.514.334.873.334.148 0 .297-.019.445-.056.161-.037.304-.08.427-.13l.427 1.987a9.736 9.736 0 0 1-.872.222 5.436 5.436 0 0 1-1.17.112Zm3.561 3.193V50.792h2.228l.186.91h.074a4.987 4.987 0 0 1 1.207-.799 3.192 3.192 0 0 1 1.41-.334c1.115 0 1.993.427 2.637 1.28.643.843.965 1.975.965 3.398 0 1.052-.185 1.95-.557 2.692-.37.743-.854 1.312-1.448 1.708a3.343 3.343 0 0 1-1.875.576c-.396 0-.78-.08-1.15-.242a3.844 3.844 0 0 1-1.04-.724l.092 1.467v2.692h-2.729Zm4.196-5.421c.47 0 .873-.217 1.207-.65.334-.433.501-1.12.501-2.06 0-1.66-.532-2.488-1.597-2.488-.532 0-1.058.278-1.578.835v3.769c.248.223.495.377.743.464.247.087.489.13.724.13Zm9.067 2.228a5.447 5.447 0 0 1-1.876-.353 5.78 5.78 0 0 1-1.652-.928l1.225-1.708c.421.31.823.55 1.207.724.396.16.786.241 1.17.241.408 0 .705-.068.89-.204a.704.704 0 0 0 .28-.576.62.62 0 0 0-.28-.52 2.718 2.718 0 0 0-.686-.37 22.94 22.94 0 0 0-.91-.372 7.79 7.79 0 0 1-1.114-.557 3.148 3.148 0 0 1-.91-.854c-.247-.359-.37-.792-.37-1.3 0-.853.321-1.547.965-2.079.656-.532 1.51-.798 2.562-.798.705 0 1.324.124 1.856.371a6.425 6.425 0 0 1 1.393.799l-1.226 1.633a4.414 4.414 0 0 0-.965-.575 2.461 2.461 0 0 0-.965-.204c-.706 0-1.059.24-1.059.723 0 .298.174.526.52.687.36.149.774.31 1.244.483.396.136.78.316 1.151.539.384.21.7.495.947.854.26.346.39.804.39 1.373 0 .83-.322 1.535-.966 2.117-.643.57-1.584.854-2.822.854Zm7.098-6.015c-.47 0-.866-.161-1.188-.483a1.737 1.737 0 0 1-.464-1.225c0-.495.154-.904.464-1.226a1.585 1.585 0 0 1 1.188-.5c.47 0 .86.166 1.17.5.322.322.482.73.482 1.226a1.7 1.7 0 0 1-.482 1.225c-.31.322-.7.483-1.17.483Zm0 6.015c-.47 0-.866-.161-1.188-.483a1.737 1.737 0 0 1-.464-1.225c0-.495.154-.904.464-1.226a1.585 1.585 0 0 1 1.188-.5c.47 0 .86.166 1.17.5.322.322.482.73.482 1.226a1.7 1.7 0 0 1-.482 1.225c-.31.322-.7.483-1.17.483Zm3.023 2.747 3.731-16.151h1.782L80.83 62.97h-1.782Zm6.29 0L89.07 46.82h1.783L87.12 62.97h-1.782ZM94.137 60l-2.302-9.208h2.71l.892 4.27c.074.458.142.91.204 1.355.062.445.13.903.204 1.374h.074c.087-.47.167-.935.242-1.393.086-.458.185-.903.297-1.336l1.02-4.27h2.359l1.039 4.27c.112.458.211.91.297 1.355.099.445.192.903.279 1.374h.074c.087-.47.155-.928.204-1.374.062-.446.136-.897.223-1.355l.873-4.27h2.525L103.14 60h-3.193l-.835-3.676-.26-1.3a403.4 403.4 0 0 0-.242-1.392h-.074c-.087.495-.167.96-.241 1.393a23.81 23.81 0 0 1-.223 1.3L97.255 60h-3.119Zm14.414 0-2.303-9.208h2.711l.891 4.27c.074.458.142.91.204 1.355.062.445.13.903.205 1.374h.074c.086-.47.167-.935.241-1.393.087-.458.186-.903.297-1.336l1.021-4.27h2.358l1.04 4.27c.111.458.21.91.297 1.355.099.445.192.903.278 1.374h.075c.086-.47.154-.928.204-1.374.062-.446.136-.897.223-1.355l.872-4.27h2.525L117.554 60h-3.194l-.835-3.676-.26-1.3-.241-1.392h-.074c-.087.495-.168.96-.242 1.393-.062.433-.136.866-.223 1.3L111.669 60h-3.119Zm14.413 0-2.302-9.208h2.71l.892 4.27c.074.458.142.91.204 1.355a78 78 0 0 0 .204 1.374h.074c.087-.47.167-.935.242-1.393.086-.458.185-.903.297-1.336l1.021-4.27h2.358l1.039 4.27c.112.458.211.91.297 1.355.099.445.192.903.279 1.374h.074c.087-.47.155-.928.204-1.374.062-.446.136-.897.223-1.355l.873-4.27h2.524L131.967 60h-3.193l-.836-3.676-.259-1.3-.242-1.392h-.074c-.087.495-.167.96-.241 1.393-.062.433-.137.866-.223 1.3L126.082 60h-3.119Zm12.909.223c-.47 0-.866-.161-1.188-.483a1.739 1.739 0 0 1-.464-1.225c0-.495.155-.904.464-1.226a1.585 1.585 0 0 1 1.188-.5c.471 0 .861.166 1.17.5.322.322.483.73.483 1.226a1.7 1.7 0 0 1-.483 1.225c-.309.322-.699.483-1.17.483Zm4.647 3.379c-.272 0-.514-.019-.724-.056a7.94 7.94 0 0 1-.576-.13l.483-2.08c.087.013.186.032.297.056a1 1 0 0 0 .316.056c.458 0 .81-.111 1.058-.334a2.05 2.05 0 0 0 .557-.873l.13-.482-3.546-8.967h2.747l1.319 3.954c.136.42.26.848.371 1.281.111.433.229.879.353 1.337h.074l.297-1.3c.111-.445.223-.885.334-1.318l1.114-3.954h2.618l-3.193 9.3c-.285.768-.601 1.412-.947 1.932-.347.532-.768.928-1.263 1.188-.482.26-1.089.39-1.819.39Zm12.47-3.38c-.78 0-1.517-.185-2.21-.556a4.416 4.416 0 0 1-1.652-1.652c-.421-.73-.631-1.603-.631-2.618 0-1.027.21-1.9.631-2.618.421-.718.972-1.262 1.652-1.634a4.494 4.494 0 0 1 2.21-.575c.779 0 1.51.192 2.19.575.681.372 1.232.916 1.653 1.634.42.718.631 1.59.631 2.618 0 1.015-.211 1.887-.631 2.617a4.411 4.411 0 0 1-1.653 1.653 4.502 4.502 0 0 1-2.19.557Zm0-2.209c.557 0 .977-.235 1.262-.705.285-.483.427-1.12.427-1.912 0-.805-.142-1.442-.427-1.912-.285-.47-.705-.706-1.262-.706-.57 0-.997.235-1.281.706-.273.47-.409 1.107-.409 1.912 0 .792.136 1.43.409 1.912.284.47.711.706 1.281.706Zm9.109 2.21c-1.002 0-1.732-.328-2.19-.984-.446-.668-.669-1.578-.669-2.73v-5.717h2.729v5.365c0 .656.093 1.114.279 1.374.185.247.476.371.872.371.347 0 .638-.08.873-.241.235-.161.489-.421.761-.78v-6.09h2.729V60h-2.228l-.204-1.281h-.056a4.946 4.946 0 0 1-1.262 1.095c-.458.273-1.002.409-1.634.409Zm11.332 0c-1.139 0-1.956-.328-2.451-.984-.483-.656-.724-1.516-.724-2.58v-3.732h-1.262v-2.024l1.411-.111.315-2.451h2.265v2.45h2.209v2.136h-2.209v3.694c0 .52.105.897.316 1.133.223.222.513.334.872.334.149 0 .297-.019.446-.056a2.93 2.93 0 0 0 .427-.13l.427 1.987a9.696 9.696 0 0 1-.873.222 5.432 5.432 0 0 1-1.169.112Zm6.327 0c-1.002 0-1.733-.328-2.191-.984-.445-.668-.668-1.578-.668-2.73v-5.717h2.729v5.365c0 .656.093 1.114.279 1.374.185.247.476.371.872.371.347 0 .638-.08.873-.241.235-.161.489-.421.761-.78v-6.09h2.729V60h-2.228l-.204-1.281h-.056a4.946 4.946 0 0 1-1.262 1.095c-.458.273-1.003.409-1.634.409Zm12.612 0a2.9 2.9 0 0 1-1.243-.297 4.088 4.088 0 0 1-1.151-.91h-.075l-.222.984h-2.135V46.986h2.729v3.193l-.075 1.411c.359-.322.749-.57 1.17-.743a3.108 3.108 0 0 1 1.262-.278c.743 0 1.387.192 1.931.575.545.384.959.929 1.244 1.634.297.693.446 1.51.446 2.45 0 1.053-.186 1.956-.557 2.711-.372.743-.854 1.312-1.448 1.708a3.345 3.345 0 0 1-1.876.576Zm-.631-2.228c.471 0 .873-.217 1.207-.65.334-.433.501-1.12.501-2.06 0-1.66-.532-2.488-1.596-2.488-.545 0-1.071.278-1.578.835v3.769c.247.223.495.377.742.464.248.087.489.13.724.13Zm10.568 2.228c-.878 0-1.67-.192-2.376-.576a4.213 4.213 0 0 1-1.671-1.652c-.408-.718-.612-1.584-.612-2.6 0-1.002.204-1.862.612-2.58.421-.718.966-1.268 1.634-1.652a4.056 4.056 0 0 1 2.098-.594c.879 0 1.603.198 2.172.594.582.384 1.015.91 1.299 1.578.298.656.446 1.405.446 2.246a6.668 6.668 0 0 1-.111 1.207h-5.514c.124.668.402 1.164.835 1.485.433.31.953.465 1.56.465.656 0 1.318-.205 1.986-.613l.91 1.652c-.47.322-.996.576-1.578.761a5.547 5.547 0 0 1-1.69.279Zm-2.042-5.83h3.323c0-.507-.123-.922-.371-1.244-.235-.334-.625-.5-1.17-.5-.42 0-.798.148-1.132.445-.334.284-.551.718-.65 1.3Zm9.108 5.83c-.47 0-.866-.161-1.188-.483-.31-.334-.464-.742-.464-1.225 0-.495.154-.904.464-1.226a1.585 1.585 0 0 1 1.188-.5c.47 0 .86.166 1.17.5.321.322.482.73.482 1.226 0 .483-.161.89-.482 1.225-.31.322-.7.483-1.17.483Zm7.817 0c-.854 0-1.628-.186-2.321-.557a4.281 4.281 0 0 1-1.634-1.652c-.396-.73-.594-1.603-.594-2.618 0-1.027.223-1.9.668-2.618a4.392 4.392 0 0 1 1.764-1.634 4.993 4.993 0 0 1 2.358-.575c.569 0 1.071.093 1.504.278.445.186.841.421 1.188.706l-1.281 1.764c-.433-.36-.848-.539-1.244-.539-.656 0-1.182.235-1.578.706-.384.47-.576 1.107-.576 1.912 0 .792.192 1.43.576 1.912.396.47.891.706 1.485.706.297 0 .588-.062.873-.186.284-.136.544-.297.779-.483l1.077 1.782c-.458.396-.953.681-1.485.854a5.372 5.372 0 0 1-1.559.242Zm8.084 0a4.611 4.611 0 0 1-2.209-.557c-.681-.384-1.231-.935-1.652-1.652-.421-.73-.631-1.603-.631-2.618 0-1.027.21-1.9.631-2.618.421-.718.971-1.262 1.652-1.634a4.493 4.493 0 0 1 2.209-.575c.78 0 1.51.192 2.191.575.681.372 1.231.916 1.652 1.634.421.718.632 1.59.632 2.618 0 1.015-.211 1.887-.632 2.617-.421.718-.971 1.27-1.652 1.653a4.506 4.506 0 0 1-2.191.557Zm0-2.21c.557 0 .978-.235 1.263-.705.284-.483.427-1.12.427-1.912 0-.805-.143-1.442-.427-1.912-.285-.47-.706-.706-1.263-.706-.569 0-.996.235-1.281.706-.272.47-.408 1.107-.408 1.912 0 .792.136 1.43.408 1.912.285.47.712.706 1.281.706ZM231.617 60v-9.208h2.228l.185 1.188h.075a6.985 6.985 0 0 1 1.225-.984c.433-.285.953-.427 1.559-.427.656 0 1.182.136 1.578.408.409.26.731.638.966 1.133a7.48 7.48 0 0 1 1.299-1.077c.458-.31.99-.464 1.597-.464.99 0 1.714.334 2.172 1.002.47.656.706 1.56.706 2.71V60h-2.73v-5.365c0-.669-.092-1.127-.278-1.374-.173-.248-.458-.372-.854-.372-.458 0-.984.298-1.578.892V60h-2.729v-5.365c0-.669-.093-1.127-.279-1.374-.173-.248-.458-.372-.854-.372-.458 0-.977.298-1.559.892V60h-2.729Zm14.953 2.97 3.731-16.151h1.782l-3.731 16.151h-1.782Zm9.373-2.97-3.101-9.208h2.748l1.188 4.344c.124.458.241.928.353 1.41.124.471.247.948.371 1.43h.074c.112-.482.223-.959.335-1.43.123-.482.247-.952.371-1.41l1.207-4.344h2.617L259.099 60h-3.156Zm7.601 0v-9.208h2.729V60h-2.729Zm1.355-10.564c-.458 0-.829-.13-1.114-.39-.284-.26-.427-.606-.427-1.04 0-.432.143-.779.427-1.039.285-.26.656-.39 1.114-.39.458 0 .829.13 1.114.39.285.26.427.607.427 1.04 0 .433-.142.78-.427 1.04-.285.26-.656.39-1.114.39Zm7.062 10.787c-1.139 0-2.055-.427-2.748-1.281-.681-.867-1.021-2.049-1.021-3.546 0-1.003.179-1.863.538-2.58.372-.731.848-1.288 1.43-1.672.594-.383 1.213-.575 1.856-.575.508 0 .935.087 1.281.26.347.173.675.408.984.705l-.111-1.41v-3.138h2.729V60h-2.228l-.185-.91h-.075a4.48 4.48 0 0 1-1.132.817 2.99 2.99 0 0 1-1.318.316Zm.705-2.228c.297 0 .563-.062.799-.186.247-.123.482-.34.705-.65v-3.768a1.977 1.977 0 0 0-.761-.464 2.4 2.4 0 0 0-.761-.13c-.434 0-.817.21-1.151.63-.335.41-.502 1.053-.502 1.932 0 .903.143 1.572.427 2.005.297.42.712.631 1.244.631Zm10.773 2.228c-.879 0-1.671-.192-2.377-.576a4.213 4.213 0 0 1-1.671-1.652c-.408-.718-.612-1.584-.612-2.6 0-1.002.204-1.862.612-2.58.421-.718.966-1.268 1.634-1.652a4.056 4.056 0 0 1 2.098-.594c.879 0 1.603.198 2.172.594.582.384 1.015.91 1.3 1.578.297.656.445 1.405.445 2.246a6.668 6.668 0 0 1-.111 1.207h-5.514c.124.668.402 1.164.835 1.485.434.31.953.465 1.56.465.656 0 1.318-.205 1.986-.613l.91 1.652c-.47.322-.996.576-1.578.761a5.545 5.545 0 0 1-1.689.279Zm-2.043-5.83h3.324c0-.507-.124-.922-.372-1.244-.235-.334-.625-.5-1.169-.5a1.66 1.66 0 0 0-1.133.445c-.334.284-.551.718-.65 1.3Zm11.484 5.83a4.611 4.611 0 0 1-2.209-.557c-.681-.384-1.231-.935-1.652-1.652-.421-.73-.631-1.603-.631-2.618 0-1.027.21-1.9.631-2.618.421-.718.971-1.262 1.652-1.634a4.493 4.493 0 0 1 2.209-.575c.78 0 1.51.192 2.191.575.681.372 1.232.916 1.652 1.634.421.718.632 1.59.632 2.618 0 1.015-.211 1.887-.632 2.617a4.402 4.402 0 0 1-1.652 1.653 4.506 4.506 0 0 1-2.191.557Zm0-2.21c.557 0 .978-.235 1.263-.705.285-.483.427-1.12.427-1.912 0-.805-.142-1.442-.427-1.912-.285-.47-.706-.706-1.263-.706-.569 0-.996.235-1.281.706-.272.47-.408 1.107-.408 1.912 0 .792.136 1.43.408 1.912.285.47.712.706 1.281.706Zm7.741 2.21c-.471 0-.867-.161-1.189-.483a1.739 1.739 0 0 1-.464-1.225c0-.495.155-.904.464-1.226a1.586 1.586 0 0 1 1.189-.5c.47 0 .86.166 1.169.5.322.322.483.73.483 1.226a1.7 1.7 0 0 1-.483 1.225c-.309.322-.699.483-1.169.483Zm5.566 0c-.471 0-.867-.161-1.189-.483a1.739 1.739 0 0 1-.464-1.225c0-.495.155-.904.464-1.226a1.586 1.586 0 0 1 1.189-.5c.47 0 .86.166 1.169.5.322.322.483.73.483 1.226a1.7 1.7 0 0 1-.483 1.225c-.309.322-.699.483-1.169.483Zm5.566 0c-.471 0-.867-.161-1.189-.483a1.739 1.739 0 0 1-.464-1.225c0-.495.155-.904.464-1.226a1.586 1.586 0 0 1 1.189-.5c.47 0 .86.166 1.169.5.322.322.483.73.483 1.226a1.7 1.7 0 0 1-.483 1.225c-.309.322-.699.483-1.169.483Z"/></g><defs><clipPath id="a"><rect width="360" height="244" fill="#fff" rx="6"/></clipPath><filter id="b" width="143.479" height="143.483" x="258.454" y="4.476" color-interpolation-filters="sRGB" filterUnits="userSpaceOnUse"><feFlood flood-opacity="0" result="BackgroundImageFix"/><feColorMatrix in="SourceAlpha" result="hardAlpha" values="0 0 0 0 0 0 0 0 0 0 0 0 0 0 0 0 0 0 127 0"/><feOffset dx="6.63" dy="2.652"/><feGaussianBlur stdDeviation="26.522"/><feColorMatrix values="0 0 0 0 0 0 0 0 0 0.460526 0 0 0 0 1 0 0 0 0.66 0"/><feBlend in2="BackgroundImageFix" result="effect1_dropShadow_822_4427"/><feColorMatrix in="SourceAlpha" result="hardAlpha" values="0 0 0 0 0 0 0 0 0 0 0 0 0 0 0 0 0 0 127 0"/><feOffset dx="6.63" dy="6.63"/><feGaussianBlur stdDeviation="6.63"/><feColorMatrix values="0 0 0 0 0.383333 0 0 0 0 0.360972 0 0 0 0 0.360972 0 0 0 0.08 0"/><feBlend in2="effect1_dropShadow_822_4427" result="effect2_dropShadow_822_4427"/><feBlend in="SourceGraphic" in2="effect2_dropShadow_822_4427" result="shape"/></filter></defs></svg>