<svg xmlns="http://www.w3.org/2000/svg" width="360" height="244" fill="none"><rect width="358.092" height="242.092" x=".954" y=".954" fill="#08003A" stroke="#1600A9" stroke-width="1.908" rx="3.046"/><path fill="#D8DEE5" fill-rule="evenodd" d="M333.653 100.914H26.346c-.568 0-1.028.435-1.028.972v26.228c0 .537.46.972 1.028.972h307.307c.568 0 1.028-.435 1.028-.972v-26.228c0-.537-.46-.972-1.028-.972ZM26.346 98c-2.27 0-4.111 1.74-4.111 3.886v26.228c0 2.146 1.84 3.886 4.111 3.886h307.307c2.271 0 4.111-1.74 4.111-3.886v-26.228c0-2.146-1.84-3.886-4.111-3.886H26.346Z" clip-rule="evenodd"/><path fill="#D7DDE5" d="M30.515 120v-9.364h1.963v2.298l-.093 1.189c.249-.223.538-.428.868-.615.338-.196.73-.294 1.175-.294.722 0 1.243.241 1.563.722.33.472.495 1.122.495 1.95V120h-1.964v-3.86c0-.481-.067-.811-.2-.989-.125-.178-.33-.267-.615-.267-.25 0-.463.058-.641.174a3.425 3.425 0 0 0-.588.467V120h-1.963Zm10.182.16c-.82 0-1.407-.236-1.763-.708-.347-.472-.521-1.091-.521-1.856v-2.685h-.908v-1.456l1.015-.08.227-1.764h1.63v1.764h1.589v1.536h-1.59v2.658c0 .374.076.646.227.815.16.16.37.24.628.24.107 0 .214-.013.32-.04.117-.027.219-.058.308-.093l.307 1.429a7.02 7.02 0 0 1-.627.16c-.24.054-.521.08-.842.08Zm4.852 0c-.819 0-1.407-.236-1.763-.708-.347-.472-.52-1.091-.52-1.856v-2.685h-.909v-1.456l1.015-.08.227-1.764h1.63v1.764h1.59v1.536h-1.59v2.658c0 .374.076.646.227.815.16.16.37.24.628.24.107 0 .214-.013.32-.04.116-.027.219-.058.308-.093l.307 1.429a7.02 7.02 0 0 1-.628.16c-.24.054-.52.08-.841.08Zm2.563 2.298v-9.083h1.603l.133.654h.054c.258-.231.547-.423.868-.574.33-.161.668-.241 1.015-.241.802 0 1.434.308 1.897.922.463.606.694 1.42.694 2.444 0 .757-.133 1.403-.4 1.937-.267.535-.615.944-1.042 1.229a2.405 2.405 0 0 1-1.35.414c-.284 0-.56-.058-.828-.173a2.789 2.789 0 0 1-.748-.521l.067 1.055v1.937h-1.963Zm3.018-3.901c.339 0 .628-.155.869-.467.24-.312.36-.806.36-1.483 0-1.193-.383-1.79-1.148-1.79-.383 0-.762.201-1.136.601v2.712c.178.16.356.272.535.334.178.062.351.093.52.093Zm6.524 1.603c-.437 0-.886-.084-1.35-.254a4.156 4.156 0 0 1-1.188-.667l.882-1.229c.302.222.592.396.868.521.285.115.565.173.841.173.294 0 .508-.049.641-.147a.505.505 0 0 0 .2-.414.447.447 0 0 0-.2-.374 1.946 1.946 0 0 0-.494-.267 16.505 16.505 0 0 0-.654-.267 5.55 5.55 0 0 1-.802-.401 2.265 2.265 0 0 1-.654-.614c-.178-.258-.267-.57-.267-.935 0-.615.231-1.113.694-1.496.472-.383 1.087-.575 1.843-.575.508 0 .953.089 1.336.267.392.17.726.361 1.002.575l-.881 1.175a3.182 3.182 0 0 0-.695-.414 1.77 1.77 0 0 0-.695-.147c-.507 0-.761.174-.761.521 0 .214.125.379.374.494.258.107.556.223.895.348.285.098.56.227.828.387.276.152.503.356.681.615.187.249.28.578.28.988 0 .597-.23 1.104-.694 1.523-.463.409-1.14.614-2.03.614Zm5.107-4.328a1.16 1.16 0 0 1-.855-.347 1.248 1.248 0 0 1-.334-.881c0-.357.112-.651.334-.882.232-.241.517-.361.855-.361.339 0 .62.12.842.361.231.231.347.525.347.882 0 .347-.116.641-.347.881a1.116 1.116 0 0 1-.842.347Zm0 4.328a1.16 1.16 0 0 1-.855-.347 1.249 1.249 0 0 1-.334-.882c0-.356.112-.65.334-.881.232-.241.517-.361.855-.361.339 0 .62.12.842.361.231.231.347.525.347.881 0 .348-.116.642-.347.882a1.116 1.116 0 0 1-.842.347Zm2.175 1.977 2.685-11.621h1.282l-2.685 11.621h-1.282Zm4.526 0 2.685-11.621h1.283l-2.685 11.621h-1.283Zm6.33-2.137-1.656-6.625h1.95l.641 3.072c.054.329.103.654.147.975.045.321.094.65.147.988h.053c.063-.338.12-.672.174-1.001.062-.33.134-.65.214-.962l.734-3.072h1.697l.748 3.072c.08.329.151.654.214.975.07.321.138.65.2.988h.053c.063-.338.112-.667.147-.988.045-.321.098-.646.16-.975l.628-3.072h1.817L82.27 120h-2.297l-.601-2.645-.187-.935c-.053-.312-.111-.645-.174-1.002h-.053l-.174 1.002c-.044.312-.098.624-.16.935L78.036 120h-2.244Zm10.37 0-1.656-6.625h1.95l.642 3.072c.053.329.102.654.147.975.044.321.093.65.146.988h.054c.062-.338.12-.672.174-1.001.062-.33.133-.65.213-.962l.735-3.072h1.696l.748 3.072c.08.329.152.654.214.975.071.321.138.65.2.988h.054c.062-.338.111-.667.147-.988.044-.321.098-.646.16-.975l.628-3.072h1.817L92.64 120h-2.297l-.602-2.645-.187-.935c-.053-.312-.11-.645-.173-1.002h-.054l-.173 1.002c-.045.312-.098.624-.16.935L88.406 120h-2.245Zm10.371 0-1.656-6.625h1.95l.641 3.072c.053.329.102.654.147.975.044.321.093.65.147.988h.053c.063-.338.12-.672.174-1.001.062-.33.133-.65.214-.962l.734-3.072h1.697l.748 3.072c.08.329.151.654.213.975.072.321.139.65.201.988h.053c.063-.338.112-.667.147-.988.045-.321.098-.646.161-.975l.627-3.072h1.817l-1.59 6.625h-2.297l-.601-2.645-.187-.935a291.44 291.44 0 0 0-.174-1.002H99.7l-.174 1.002c-.044.312-.098.624-.16.935L98.777 120h-2.244Zm9.288.16c-.338 0-.623-.115-.855-.347a1.252 1.252 0 0 1-.334-.882c0-.356.112-.65.334-.881a1.14 1.14 0 0 1 .855-.361c.339 0 .619.12.842.361.231.231.347.525.347.881 0 .348-.116.642-.347.882a1.117 1.117 0 0 1-.842.347Zm3.343 2.431a3 3 0 0 1-.521-.04 5.698 5.698 0 0 1-.414-.093l.348-1.496c.062.009.133.022.213.04a.71.71 0 0 0 .227.04c.33 0 .584-.08.762-.241.178-.16.311-.369.401-.627l.093-.348-2.551-6.451h1.977l.948 2.845c.098.303.187.61.267.921.08.312.165.633.254.962h.053l.214-.935c.08-.32.16-.637.241-.948l.801-2.845h1.883l-2.297 6.692a6.759 6.759 0 0 1-.681 1.389 2.44 2.44 0 0 1-.909.855c-.347.187-.783.28-1.309.28Zm8.972-2.431a3.314 3.314 0 0 1-1.589-.4 3.177 3.177 0 0 1-1.189-1.189c-.303-.526-.454-1.153-.454-1.884 0-.739.151-1.367.454-1.883a3.078 3.078 0 0 1 1.189-1.176 3.23 3.23 0 0 1 1.589-.414c.561 0 1.087.138 1.576.414.49.268.887.659 1.189 1.176.303.516.454 1.144.454 1.883 0 .731-.151 1.358-.454 1.884a3.17 3.17 0 0 1-1.189 1.189c-.489.267-1.015.4-1.576.4Zm0-1.589a.997.997 0 0 0 .909-.508c.204-.347.307-.806.307-1.376 0-.579-.103-1.037-.307-1.376a.998.998 0 0 0-.909-.507c-.409 0-.717.169-.921.507-.196.339-.294.797-.294 1.376 0 .57.098 1.029.294 1.376.204.339.512.508.921.508Zm6.555 1.589c-.722 0-1.247-.236-1.576-.708-.321-.481-.481-1.135-.481-1.963v-4.114h1.963v3.86c0 .472.067.801.201.988.133.179.342.268.627.268.25 0 .459-.058.628-.174.169-.116.352-.303.548-.561v-4.381h1.963V120h-1.602l-.147-.922h-.041a3.53 3.53 0 0 1-.908.788c-.329.196-.721.294-1.175.294Zm8.153 0c-.82 0-1.407-.236-1.764-.708-.347-.472-.52-1.091-.52-1.856v-2.685h-.909v-1.456l1.015-.08.227-1.764h1.63v1.764h1.59v1.536h-1.59v2.658c0 .374.076.646.227.815.16.16.37.24.628.24.107 0 .214-.013.321-.04.115-.027.218-.058.307-.093l.307 1.429a6.946 6.946 0 0 1-.628.16c-.24.054-.521.08-.841.08Zm4.552 0c-.721 0-1.247-.236-1.576-.708-.321-.481-.481-1.135-.481-1.963v-4.114h1.964v3.86c0 .472.066.801.2.988.134.179.343.268.628.268.249 0 .458-.058.628-.174.169-.116.351-.303.547-.561v-4.381h1.964V120h-1.603l-.147-.922h-.04c-.276.33-.579.593-.908.788-.33.196-.722.294-1.176.294Zm9.075 0c-.294 0-.592-.071-.895-.213a2.953 2.953 0 0 1-.828-.655h-.054l-.16.708h-1.536v-9.364h1.963v2.298l-.053 1.015c.258-.232.539-.41.841-.534.303-.134.606-.201.909-.201.534 0 .997.138 1.389.414.392.276.69.668.895 1.176.214.499.32 1.086.32 1.763 0 .757-.133 1.407-.4 1.95-.267.535-.615.944-1.042 1.229a2.406 2.406 0 0 1-1.349.414Zm-.454-1.603c.338 0 .627-.155.868-.467.24-.312.36-.806.36-1.483 0-1.193-.382-1.79-1.148-1.79-.392 0-.771.201-1.136.601v2.712c.178.16.357.272.535.334.178.062.351.093.521.093Zm7.603 1.603a3.516 3.516 0 0 1-1.709-.414 3.023 3.023 0 0 1-1.203-1.189c-.294-.516-.44-1.139-.44-1.87 0-.721.146-1.34.44-1.856a3.203 3.203 0 0 1 1.176-1.189 2.918 2.918 0 0 1 1.509-.428c.632 0 1.153.143 1.563.428.419.276.73.654.935 1.135.214.472.321 1.011.321 1.616a4.788 4.788 0 0 1-.08.869h-3.968c.089.481.29.837.601 1.068.312.223.686.334 1.122.334.472 0 .949-.147 1.43-.441l.654 1.189a4.325 4.325 0 0 1-1.135.548 3.98 3.98 0 0 1-1.216.2Zm-1.469-4.194h2.391c0-.365-.089-.663-.267-.895-.169-.24-.45-.361-.842-.361-.302 0-.574.107-.815.321-.24.205-.396.516-.467.935Zm6.553 4.194a1.16 1.16 0 0 1-.855-.347 1.247 1.247 0 0 1-.334-.882c0-.356.111-.65.334-.881.232-.241.516-.361.855-.361.338 0 .619.12.841.361.232.231.348.525.348.881 0 .348-.116.642-.348.882a1.115 1.115 0 0 1-.841.347Zm5.624 0a3.484 3.484 0 0 1-1.67-.4 3.08 3.08 0 0 1-1.175-1.189c-.285-.526-.428-1.153-.428-1.884 0-.739.161-1.367.481-1.883a3.165 3.165 0 0 1 1.269-1.176 3.596 3.596 0 0 1 1.697-.414c.409 0 .77.067 1.082.201.32.133.605.302.854.507l-.921 1.269c-.312-.258-.61-.387-.895-.387-.472 0-.851.169-1.136.507-.276.339-.414.797-.414 1.376 0 .57.138 1.029.414 1.376a1.34 1.34 0 0 0 1.069.508c.214 0 .423-.045.628-.134.205-.098.392-.214.561-.347l.775 1.282a3.1 3.1 0 0 1-1.069.615 3.892 3.892 0 0 1-1.122.173Zm5.817 0a3.32 3.32 0 0 1-1.59-.4 3.175 3.175 0 0 1-1.188-1.189c-.303-.526-.455-1.153-.455-1.884 0-.739.152-1.367.455-1.883a3.076 3.076 0 0 1 1.188-1.176 3.236 3.236 0 0 1 3.166 0c.49.268.886.659 1.189 1.176.303.516.454 1.144.454 1.883 0 .731-.151 1.358-.454 1.884a3.177 3.177 0 0 1-1.189 1.189c-.49.267-1.015.4-1.576.4Zm0-1.589a.995.995 0 0 0 .908-.508c.205-.347.307-.806.307-1.376 0-.579-.102-1.037-.307-1.376a.996.996 0 0 0-.908-.507c-.41 0-.717.169-.922.507-.196.339-.294.797-.294 1.376 0 .57.098 1.029.294 1.376.205.339.512.508.922.508Zm4.564 1.429v-6.625h1.603l.134.855h.053c.276-.277.57-.513.882-.708.311-.205.685-.308 1.122-.308.472 0 .85.098 1.135.294.294.187.525.459.695.815.293-.303.605-.561.935-.775a2.005 2.005 0 0 1 1.148-.334c.713 0 1.234.241 1.563.722.339.472.508 1.122.508 1.95V120h-1.964v-3.86c0-.481-.067-.811-.2-.989-.125-.178-.33-.267-.615-.267-.329 0-.708.214-1.135.641V120h-1.964v-3.86c0-.481-.066-.811-.2-.989-.125-.178-.329-.267-.614-.267-.33 0-.704.214-1.122.641V120h-1.964Zm10.759 2.137 2.684-11.621h1.283l-2.685 11.621h-1.282Zm6.743-2.137-2.23-6.625h1.977l.854 3.125c.09.33.174.668.254 1.015.089.339.178.682.267 1.029h.054l.24-1.029c.089-.347.178-.685.267-1.015l.869-3.125h1.883L194.482 120h-2.271Zm5.469 0v-6.625h1.964V120h-1.964Zm.976-7.6c-.33 0-.597-.094-.802-.281-.205-.187-.307-.436-.307-.748s.102-.561.307-.748c.205-.187.472-.281.802-.281.329 0 .596.094.801.281.205.187.307.436.307.748s-.102.561-.307.748c-.205.187-.472.281-.801.281Zm5.08 7.76c-.819 0-1.478-.307-1.977-.921-.489-.624-.734-1.474-.734-2.552 0-.721.129-1.34.387-1.856.267-.526.61-.927 1.029-1.203a2.424 2.424 0 0 1 1.335-.414c.366 0 .673.063.922.187.249.125.485.294.708.508l-.08-1.015v-2.258h1.964V120h-1.603l-.134-.655h-.053a3.237 3.237 0 0 1-.815.588 2.144 2.144 0 0 1-.949.227Zm.508-1.603c.214 0 .405-.044.574-.133.178-.089.348-.245.508-.468v-2.711a1.41 1.41 0 0 0-.548-.334 1.706 1.706 0 0 0-.547-.094c-.312 0-.588.152-.829.454-.24.294-.36.757-.36 1.39 0 .65.102 1.131.307 1.442.214.303.512.454.895.454Zm7.751 1.603a3.518 3.518 0 0 1-1.71-.414 3.02 3.02 0 0 1-1.202-1.189c-.294-.516-.441-1.139-.441-1.87 0-.721.147-1.34.441-1.856a3.194 3.194 0 0 1 1.175-1.189 2.92 2.92 0 0 1 1.51-.428c.632 0 1.153.143 1.562.428.419.276.731.654.935 1.135.214.472.321 1.011.321 1.616a4.788 4.788 0 0 1-.08.869h-3.967c.089.481.289.837.601 1.068.311.223.685.334 1.122.334.472 0 .948-.147 1.429-.441l.655 1.189a4.332 4.332 0 0 1-1.136.548c-.418.134-.824.2-1.215.2Zm-1.47-4.194h2.391c0-.365-.089-.663-.267-.895-.169-.24-.45-.361-.841-.361-.303 0-.575.107-.815.321-.241.205-.396.516-.468.935Zm8.263 4.194a3.32 3.32 0 0 1-1.59-.4 3.175 3.175 0 0 1-1.188-1.189c-.303-.526-.455-1.153-.455-1.884 0-.739.152-1.367.455-1.883a3.076 3.076 0 0 1 1.188-1.176 3.236 3.236 0 0 1 3.166 0c.49.268.886.659 1.189 1.176.303.516.454 1.144.454 1.883 0 .731-.151 1.358-.454 1.884a3.177 3.177 0 0 1-1.189 1.189c-.49.267-1.015.4-1.576.4Zm0-1.589c.401 0 .704-.169.908-.508.205-.347.308-.806.308-1.376 0-.579-.103-1.037-.308-1.376-.204-.338-.507-.507-.908-.507-.41 0-.717.169-.922.507-.196.339-.294.797-.294 1.376 0 .57.098 1.029.294 1.376.205.339.512.508.922.508Zm3.856 3.299v-1.109h6.358v1.109h-6.358Zm8.522-1.71c-.338 0-.623-.115-.855-.347a1.25 1.25 0 0 1-.333-.882c0-.356.111-.65.333-.881a1.14 1.14 0 0 1 .855-.361c.339 0 .619.12.842.361.231.231.347.525.347.881 0 .348-.116.642-.347.882a1.117 1.117 0 0 1-.842.347Zm4.005 0c-.338 0-.623-.115-.855-.347a1.252 1.252 0 0 1-.334-.882c0-.356.112-.65.334-.881a1.14 1.14 0 0 1 .855-.361c.338 0 .619.12.842.361.231.231.347.525.347.881 0 .348-.116.642-.347.882a1.118 1.118 0 0 1-.842.347Zm4.005 0c-.339 0-.624-.115-.855-.347a1.247 1.247 0 0 1-.334-.882c0-.356.111-.65.334-.881.231-.241.516-.361.855-.361.338 0 .619.12.841.361.232.231.348.525.348.881 0 .348-.116.642-.348.882a1.115 1.115 0 0 1-.841.347Z"/><path fill="#FF206E" d="M140.787 78.128a8.72 8.72 0 0 1-2.123-.256c-.67-.18-1.202-.404-1.596-.67l.83-1.787c.394.244.857.446 1.389.606a6.008 6.008 0 0 0 1.596.223c.574 0 .978-.069 1.213-.207.244-.138.367-.33.367-.575 0-.202-.096-.35-.288-.447-.181-.106-.425-.186-.734-.239a35.94 35.94 0 0 0-1.021-.16 14.188 14.188 0 0 1-1.101-.207 3.958 3.958 0 0 1-1.022-.415 2.154 2.154 0 0 1-.75-.734c-.181-.309-.271-.708-.271-1.197 0-.543.154-1.022.462-1.436.32-.415.777-.74 1.373-.974.596-.245 1.309-.367 2.139-.367.585 0 1.181.064 1.787.192.607.127 1.112.313 1.516.558l-.83 1.772a4.038 4.038 0 0 0-1.26-.495 5.39 5.39 0 0 0-1.213-.144c-.554 0-.958.075-1.213.224-.256.149-.383.34-.383.574 0 .213.09.373.271.479.191.106.442.192.75.255.309.064.644.123 1.006.176.372.043.744.112 1.117.207.372.096.707.234 1.005.415.309.17.559.41.75.719.192.297.288.691.288 1.18 0 .533-.16 1.006-.479 1.421-.319.404-.782.724-1.389.958-.596.234-1.324.35-2.186.35Zm8.478 0a8.712 8.712 0 0 1-2.122-.256c-.671-.18-1.203-.404-1.596-.67l.83-1.787c.393.244.856.446 1.388.606a6.02 6.02 0 0 0 1.596.223c.575 0 .979-.069 1.213-.207.245-.138.367-.33.367-.575 0-.202-.096-.35-.287-.447-.181-.106-.426-.186-.734-.239a36.043 36.043 0 0 0-1.022-.16 14.368 14.368 0 0 1-1.101-.207 3.951 3.951 0 0 1-1.021-.415 2.146 2.146 0 0 1-.75-.734c-.181-.309-.272-.708-.272-1.197 0-.543.155-1.022.463-1.436.319-.415.777-.74 1.373-.974.595-.245 1.308-.367 2.138-.367a8.67 8.67 0 0 1 1.788.192c.606.127 1.112.313 1.516.558l-.83 1.772a4.034 4.034 0 0 0-1.261-.495 5.382 5.382 0 0 0-1.213-.144c-.553 0-.957.075-1.213.224-.255.149-.383.34-.383.574a.52.52 0 0 0 .272.479c.191.106.441.192.75.255.308.064.643.123 1.005.176.373.043.745.112 1.117.207.373.096.708.234 1.006.415.308.17.558.41.75.719.191.297.287.691.287 1.18 0 .533-.159 1.006-.479 1.421-.319.404-.782.724-1.388.958-.596.234-1.325.35-2.187.35Zm6.52 3.096a4.36 4.36 0 0 1-1.325-.208c-.436-.138-.793-.33-1.069-.574l.909-1.772a2.169 2.169 0 0 0 1.405.543c.351 0 .628-.085.83-.255.213-.16.404-.431.574-.814l.447-1.054.192-.271 3.08-7.405h2.394l-3.878 9.113c-.277.691-.596 1.234-.958 1.628-.351.393-.745.67-1.181.83-.425.16-.899.239-1.42.239Zm1.468-2.889-3.83-8.921h2.569l2.969 7.181-1.708 1.74Zm10.837-.207c-.915 0-1.729-.192-2.442-.575a4.475 4.475 0 0 1-1.676-1.564c-.404-.67-.606-1.431-.606-2.282 0-.862.202-1.623.606-2.282a4.313 4.313 0 0 1 1.676-1.564c.713-.383 1.527-.575 2.442-.575.904 0 1.713.192 2.426.575a4.2 4.2 0 0 1 1.675 1.548c.405.66.607 1.425.607 2.298 0 .851-.202 1.612-.607 2.282a4.315 4.315 0 0 1-1.675 1.564c-.713.383-1.522.575-2.426.575Zm0-2.043c.415 0 .787-.096 1.117-.287.33-.192.591-.463.782-.814.192-.362.287-.788.287-1.277 0-.5-.095-.926-.287-1.277a2.054 2.054 0 0 0-.782-.814 2.184 2.184 0 0 0-1.117-.287 2.18 2.18 0 0 0-1.117.287 2.17 2.17 0 0 0-.798.814c-.192.351-.288.777-.288 1.277 0 .49.096.915.288 1.277.202.35.468.622.798.814a2.18 2.18 0 0 0 1.117.287Zm9.995 2.043c-.713 0-1.351-.139-1.915-.415a2.961 2.961 0 0 1-1.293-1.261c-.308-.575-.463-1.303-.463-2.187v-4.851h2.49v4.484c0 .713.149 1.24.447 1.58.308.33.739.495 1.293.495.383 0 .723-.08 1.021-.24.298-.17.532-.425.702-.765.17-.352.256-.788.256-1.31v-4.244h2.489V78h-2.362v-2.362l.431.686a2.977 2.977 0 0 1-1.277 1.357 3.773 3.773 0 0 1-1.819.447Zm10.845 0c-1.011 0-1.798-.256-2.362-.766-.564-.522-.846-1.293-.846-2.315v-7.533h2.49v7.502c0 .361.096.643.287.845.192.192.452.288.782.288.394 0 .729-.107 1.006-.32l.67 1.756c-.255.18-.564.32-.926.415a4.657 4.657 0 0 1-1.101.128Zm-4.533-6.608v-1.915h5.953v1.915h-5.953Zm11.58 6.608c-.713 0-1.351-.139-1.915-.415a2.961 2.961 0 0 1-1.293-1.261c-.308-.575-.462-1.303-.462-2.187v-4.851h2.489v4.484c0 .713.149 1.24.447 1.58.309.33.74.495 1.293.495.383 0 .723-.08 1.021-.24.298-.17.532-.425.703-.765.17-.352.255-.788.255-1.31v-4.244h2.49V78h-2.362v-2.362l.431.686a2.982 2.982 0 0 1-1.277 1.357 3.777 3.777 0 0 1-1.82.447Zm12.409 0c-.755 0-1.404-.16-1.947-.48-.542-.318-.957-.802-1.245-1.451-.287-.66-.43-1.49-.43-2.49 0-1.011.149-1.84.446-2.49.309-.649.735-1.133 1.277-1.452.543-.32 1.176-.479 1.899-.479.809 0 1.533.18 2.171.543.649.361 1.16.872 1.532 1.532.383.66.575 1.441.575 2.346 0 .894-.192 1.67-.575 2.33a4.038 4.038 0 0 1-1.532 1.548c-.638.362-1.362.543-2.171.543ZM203.311 78V66.158h2.49v4.995l-.16 2.538.048 2.553V78h-2.378Zm4.645-1.915a2.1 2.1 0 0 0 1.101-.287c.33-.192.59-.463.782-.814.202-.362.303-.788.303-1.277 0-.5-.101-.926-.303-1.277a2.06 2.06 0 0 0-.782-.814 2.1 2.1 0 0 0-1.101-.287c-.415 0-.788.096-1.118.287-.329.192-.59.463-.782.814-.191.351-.287.777-.287 1.277 0 .49.096.915.287 1.277.192.35.453.622.782.814.33.191.703.287 1.118.287Zm10.636 2.043c-.979 0-1.841-.192-2.586-.575-.734-.383-1.303-.904-1.708-1.564-.404-.67-.606-1.431-.606-2.282 0-.862.197-1.623.59-2.282a4.234 4.234 0 0 1 1.644-1.564c.692-.383 1.474-.575 2.346-.575.841 0 1.596.18 2.267.543a3.923 3.923 0 0 1 1.612 1.532c.393.66.59 1.452.59 2.378 0 .096-.005.207-.016.335-.01.117-.021.229-.032.335h-6.974v-1.452h5.666l-.958.43c0-.446-.09-.835-.271-1.164a1.927 1.927 0 0 0-.75-.766 2.134 2.134 0 0 0-1.118-.288c-.425 0-.803.096-1.133.288-.319.18-.569.441-.75.782-.181.33-.271.723-.271 1.18v.384c0 .468.101.883.303 1.244.213.352.505.623.878.814.383.181.83.272 1.34.272.458 0 .857-.07 1.197-.208.352-.138.671-.346.958-.622l1.325 1.436a3.939 3.939 0 0 1-1.485 1.038c-.595.234-1.282.35-2.058.35Z"/><rect width="139.648" height="13.965" x="212" y="9.975" fill="#B8C3D2" opacity=".2" rx="5.985"/><rect width="69.824" height="13.965" fill="#B8C3D2" opacity=".2" rx="5.985" transform="matrix(1 0 0 -1 9.975 23.94)"/><rect width="55.059" height="36" x="282.706" y="97" fill="#FF206E" rx="1.995"/><path fill="#fff" fill-rule="evenodd" d="m315.943 113.953-9.1-8.815-.987-.956-1.975 1.912.987.956 8.173 7.917-8.169 7.913-.987.956 1.974 1.912.987-.956 9.1-8.815.987-.956-.059-.058.056-.054-.987-.956Z" clip-rule="evenodd"/><rect width="98.288" height="49.874" fill="#2B2758" rx="5.985" transform="matrix(1 0 0 -1 22 226.429)"/><rect width="98.288" height="49.874" fill="#2B2758" rx="5.985" transform="matrix(1 0 0 -1 130.855 226.429)"/><rect width="98.288" height="49.874" fill="#2B2758" rx="5.985" transform="matrix(1 0 0 -1 239.712 226.429)"/><path fill="#fff" fill-rule="evenodd" d="M319.466 128.538c.81 0 1.466-.62 1.466-1.384v-4.35c0-.765-.656-1.385-1.466-1.385-.809 0-1.465.62-1.465 1.385v4.35c0 .764.656 1.384 1.465 1.384Zm-10.13-3c.572-.54 1.5-.54 2.073 0l3.256 3.076a1.33 1.33 0 0 1 0 1.957 1.502 1.502 0 0 1-1.036.406c-.376 0-.751-.135-1.037-.406l-3.256-3.075a1.332 1.332 0 0 1 0-1.958Zm30.309 22.652 8.722 8.238a1.33 1.33 0 0 1 0 1.957l-4.256 4.02c-.275.26-.647.406-1.036.406a1.51 1.51 0 0 1-1.037-.406l-8.721-8.237-3.593 5.876a1.49 1.49 0 0 1-1.375.689c-.56-.039-1.048-.376-1.256-.868l-11.066-26.208a1.33 1.33 0 0 1 .325-1.492 1.526 1.526 0 0 1 1.579-.306l27.746 10.453c.522.196.879.657.919 1.186a1.365 1.365 0 0 1-.729 1.298l-6.222 3.394Zm-27.133-13.083c0-.764-.656-1.384-1.466-1.384h-4.605c-.81 0-1.466.62-1.466 1.384 0 .765.656 1.385 1.466 1.385h4.605c.81-.001 1.466-.62 1.466-1.385Zm-3.852 7.348 3.257-3.076c.573-.54 1.5-.54 2.073 0a1.332 1.332 0 0 1 0 1.958l-3.257 3.076c-.286.27-.662.405-1.036.405-.375 0-.751-.135-1.037-.405a1.332 1.332 0 0 1 0-1.958Zm17.402-12.521c-.286.27-.661.406-1.037.406-.375 0-.75-.136-1.036-.406a1.33 1.33 0 0 1 0-1.957l3.257-3.076c.572-.54 1.5-.54 2.072 0a1.33 1.33 0 0 1 0 1.958l-3.256 3.075Z" clip-rule="evenodd"/><path fill="#D9E7F7" d="m311.409 125.538.065-.069-.065.069Zm-2.073 0-.066-.069.066.069Zm5.329 3.076-.066.069.066-.069Zm0 1.957.065.07-.065-.07Zm-2.073 0 .066-.069-.066.069Zm-3.256-3.075-.066.069.066-.069Zm39.031 28.932-.066.069.066-.069Zm-8.722-8.238-.046-.083-.115.062.096.091.065-.07Zm8.722 10.195.065.07-.065-.07Zm-4.256 4.02-.065-.069.065.069Zm-2.073 0 .066-.069-.066.069Zm-8.721-8.237.066-.07-.086-.08-.061.1.081.05Zm-3.593 5.876-.082-.049.082.049Zm-1.375.689.006-.096-.006.096Zm-1.256-.868-.088.037.088-.037Zm-11.066-26.208.088-.037-.088.037Zm.325-1.492-.066-.069.066.069Zm1.579-.306-.034.089.034-.089Zm27.746 10.453-.033.089.033-.089Zm.919 1.186-.095.007.095-.007Zm-.729 1.298-.045-.084.045.084Zm-34.821-8.304v.095-.095Zm.871 2.887-.065-.069.065.069Zm-3.257 3.076-.065-.069.065.069Zm5.33-3.076.065-.069-.065.069Zm0 1.958.065.069-.065-.069Zm-3.257 3.076-.066-.07.066.07Zm-2.073 0-.065.069.065-.069Zm17.402-14.479.065.07-.065-.07Zm-2.073 0-.065.07.065-.07Zm0-1.957.066.069-.066-.069Zm3.257-3.076-.066-.07v.001l.066.069Zm2.072 0 .066-.069v-.001l-.066.07Zm0 1.958-.065-.07.065.07Zm-8.481.295c0 .706-.609 1.288-1.371 1.288v.191c.857 0 1.561-.657 1.561-1.479h-.19Zm0-4.35v4.35h.19v-4.35h-.19Zm-1.371-1.289c.762 0 1.371.582 1.371 1.289h.19c0-.823-.704-1.48-1.561-1.48v.191Zm-1.37 1.289c0-.707.608-1.289 1.37-1.289v-.191c-.857 0-1.561.657-1.561 1.48h.191Zm0 4.35v-4.35h-.191v4.35h.191Zm1.37 1.288c-.762 0-1.37-.582-1.37-1.288h-.191c0 .822.704 1.479 1.561 1.479v-.191Zm-7.992-2.973a1.624 1.624 0 0 0-2.204 0l.131.139a1.433 1.433 0 0 1 1.942-.001l.131-.138Zm3.256 3.076-3.256-3.076-.131.138 3.256 3.076.131-.138Zm0 2.096a1.424 1.424 0 0 0 0-2.096l-.131.138a1.235 1.235 0 0 1 0 1.819l.131.139Zm-1.101.431a1.6 1.6 0 0 0 1.101-.431l-.131-.139a1.41 1.41 0 0 1-.97.379v.191Zm-1.102-.431c.305.288.704.431 1.102.431v-.191c-.353 0-.704-.127-.971-.379l-.131.139Zm-3.257-3.076 3.257 3.076.131-.139-3.257-3.076-.131.139Zm0-2.096a1.426 1.426 0 0 0 0 2.096l.131-.139a1.236 1.236 0 0 1 0-1.819l-.131-.138Zm39.162 30.889-8.721-8.237-.131.139 8.721 8.237.131-.139Zm0 2.097a1.425 1.425 0 0 0 0-2.097l-.131.139a1.235 1.235 0 0 1 0 1.819l.131.139Zm-4.255 4.02 4.255-4.02-.131-.139-4.255 4.02.131.139Zm-1.102.431a1.61 1.61 0 0 0 1.102-.431l-.131-.139a1.418 1.418 0 0 1-.971.379v.191Zm-1.102-.431c.293.276.69.431 1.102.431v-.191c-.365 0-.715-.137-.971-.379l-.131.139Zm-8.721-8.238 8.721 8.238.131-.139-8.721-8.238-.131.139Zm-3.447 5.857 3.594-5.876-.163-.1-3.594 5.877.163.099Zm-1.463.734a1.584 1.584 0 0 0 1.463-.734l-.163-.099c-.261.427-.76.679-1.287.642l-.013.191Zm-1.337-.926c.223.528.744.885 1.337.926l.013-.191c-.526-.036-.981-.352-1.174-.809l-.176.074Zm-11.066-26.208 11.066 26.208.176-.074-11.066-26.208-.176.074Zm.347-1.598a1.424 1.424 0 0 0-.347 1.598l.176-.074a1.232 1.232 0 0 1 .302-1.385l-.131-.139Zm1.679-.327a1.626 1.626 0 0 0-1.679.327l.131.139c.387-.366.97-.48 1.48-.287l.068-.179Zm27.746 10.453-27.746-10.453-.068.179 27.747 10.453.067-.179Zm.98 1.268c-.043-.568-.426-1.059-.98-1.268l-.067.179c.489.184.819.614.857 1.104l.19-.015Zm-.778 1.39c.517-.282.822-.821.778-1.39l-.19.015c.037.489-.224.959-.679 1.207l.091.168Zm-6.222 3.394 6.222-3.394-.091-.168-6.223 3.395.092.167Zm-28.645-14.455c.762 0 1.37.582 1.37 1.288h.191c0-.822-.704-1.479-1.561-1.479v.191Zm-4.605 0h4.605v-.191h-4.605v.191Zm-1.371 1.288c0-.706.609-1.288 1.371-1.288v-.191c-.857 0-1.562.657-1.562 1.479h.191Zm1.371 1.289c-.762 0-1.371-.582-1.371-1.289h-.191c0 .822.705 1.48 1.562 1.48v-.191Zm4.605 0h-4.605v.191h4.605v-.191Zm1.37-1.289c0 .707-.608 1.289-1.37 1.289v.191c.857 0 1.561-.658 1.561-1.48h-.191Zm-.564 4.203-3.257 3.076.131.139 3.257-3.076-.131-.139Zm2.203 0a1.622 1.622 0 0 0-2.203 0l.131.139a1.43 1.43 0 0 1 1.941 0l.131-.139Zm0 2.096a1.426 1.426 0 0 0 0-2.096l-.131.139a1.235 1.235 0 0 1 0 1.819l.131.138Zm-3.257 3.076 3.257-3.076-.131-.138-3.257 3.075.131.139Zm-1.101.432c.397 0 .796-.144 1.101-.432l-.131-.139c-.267.253-.618.38-.97.38v.191Zm-1.102-.432c.305.288.704.432 1.102.432v-.191c-.353 0-.704-.127-.971-.38l-.131.139Zm0-2.096a1.426 1.426 0 0 0 0 2.096l.131-.139a1.233 1.233 0 0 1 0-1.818l-.131-.139Zm16.43-11.951c.398 0 .797-.143 1.102-.431l-.131-.139a1.411 1.411 0 0 1-.971.379v.191Zm-1.101-.431a1.6 1.6 0 0 0 1.101.431v-.191a1.41 1.41 0 0 1-.97-.379l-.131.139Zm0-2.097a1.425 1.425 0 0 0 0 2.097l.131-.139a1.235 1.235 0 0 1 0-1.819l-.131-.139Zm3.256-3.075-3.256 3.075.131.139 3.256-3.076-.131-.138Zm2.204-.001a1.624 1.624 0 0 0-2.204 0l.131.139a1.434 1.434 0 0 1 1.942 0l.131-.139Zm0 2.097a1.426 1.426 0 0 0 0-2.096l-.131.138a1.236 1.236 0 0 1 0 1.819l.131.139Zm-3.257 3.076 3.257-3.076-.131-.139-3.257 3.076.131.139Z"/></svg>