<svg xmlns="http://www.w3.org/2000/svg" width="360" height="244" fill="none"><g clip-path="url(#a)"><rect width="357.348" height="241.348" x="1.326" y="1.326" fill="#08003A" stroke="#1600A9" stroke-width="2.652" rx="4.674"/><path fill="#D8DEE5" d="M28 18a4 4 0 1 1-8 0 4 4 0 0 1 8 0ZM42 18a4 4 0 1 1-8 0 4 4 0 0 1 8 0Z"/><path fill="#D8DEE5" fill-rule="evenodd" d="M52 20.4a2.4 2.4 0 1 0 0-4.8 2.4 2.4 0 0 0 0 4.8Zm0 1.6a4 4 0 1 0 0-8 4 4 0 0 0 0 8Z" clip-rule="evenodd"/><rect width="190" height="164" x="20" y="50" fill="#B8C3D2" opacity=".1" rx="1.913"/><path fill="#DCE4F0" fill-rule="evenodd" d="m135 132-40 25v-50l40 25Z" clip-rule="evenodd" opacity=".7"/><rect width="110" height="30" x="230" y="50" fill="#FF206E" rx="2"/><path fill="#fff" d="M259.819 70h-2.012l.012-1.485h2c.499 0 .92-.112 1.263-.337.343-.228.601-.56.774-.996.178-.436.267-.963.267-1.58v-.452c0-.474-.051-.89-.152-1.25a2.508 2.508 0 0 0-.438-.908 1.834 1.834 0 0 0-.718-.552 2.367 2.367 0 0 0-.977-.19h-2.07v-1.492h2.07c.618 0 1.183.106 1.695.317.516.208.962.506 1.339.895.377.39.666.855.87 1.397.207.537.311 1.136.311 1.796v.438c0 .656-.104 1.255-.311 1.796a4.01 4.01 0 0 1-.87 1.397 3.86 3.86 0 0 1-1.339.895 4.565 4.565 0 0 1-1.714.311Zm-.933-9.242V70h-1.905v-9.242h1.905Zm6.144 5.878v-.134c0-.503.072-.966.216-1.39.144-.427.353-.797.628-1.11a2.825 2.825 0 0 1 1.016-.73c.402-.178.863-.267 1.384-.267.52 0 .984.089 1.39.267.406.173.747.416 1.022.73.279.313.491.683.635 1.11.144.424.216.887.216 1.39v.134c0 .5-.072.963-.216 1.39a3.247 3.247 0 0 1-.635 1.11 2.816 2.816 0 0 1-1.016.73c-.402.174-.863.261-1.383.261-.521 0-.984-.087-1.391-.26a2.883 2.883 0 0 1-1.022-.73 3.298 3.298 0 0 1-.628-1.111 4.328 4.328 0 0 1-.216-1.39Zm1.828-.134v.134c0 .288.026.556.076.806.051.25.132.47.242.66.114.186.262.332.444.438.182.106.404.159.667.159.253 0 .471-.053.653-.159.182-.106.328-.252.438-.438.11-.19.191-.41.242-.66.055-.25.082-.518.082-.806v-.134c0-.279-.027-.541-.082-.787a2.09 2.09 0 0 0-.248-.66 1.23 1.23 0 0 0-.438-.457 1.253 1.253 0 0 0-.66-.165c-.258 0-.478.055-.66.165-.178.11-.324.263-.438.457-.11.19-.191.41-.242.66-.05.246-.076.508-.076.787Zm7.764 1.72 1.428-5.09h1.161l-.374 2L275.409 70h-.972l.185-1.777Zm-.724-5.09 1.022 5.084.095 1.784h-1.143l-1.739-6.868h1.765Zm4.621 5.002.997-5.002h1.771L279.547 70h-1.136l.108-1.866Zm-1.149-5.002 1.422 5.053.197 1.815h-.978l-1.428-4.862-.362-2.006h1.149Zm6.627 1.466V70h-1.828v-6.868h1.714l.114 1.466Zm-.267 1.727h-.495c0-.508.066-.965.197-1.371.131-.41.315-.76.552-1.048.237-.292.519-.514.845-.666.33-.157.698-.235 1.104-.235.322 0 .616.046.882.14.267.093.495.24.686.444.195.203.343.472.444.806.106.334.159.743.159 1.225V70h-1.841v-4.386c0-.305-.042-.542-.127-.711a.71.71 0 0 0-.374-.356 1.462 1.462 0 0 0-.597-.108c-.245 0-.459.05-.641.146a1.267 1.267 0 0 0-.444.407c-.115.169-.201.368-.261.596a2.937 2.937 0 0 0-.089.737Zm7.694-6.075V70h-1.835v-9.75h1.835Zm1.219 6.386v-.134c0-.503.071-.966.215-1.39a3.22 3.22 0 0 1 .629-1.11 2.813 2.813 0 0 1 1.015-.73c.402-.178.864-.267 1.384-.267.521 0 .984.089 1.39.267.407.173.747.416 1.022.73.28.313.491.683.635 1.11.144.424.216.887.216 1.39v.134c0 .5-.072.963-.216 1.39a3.23 3.23 0 0 1-.635 1.11 2.813 2.813 0 0 1-1.015.73c-.402.174-.864.261-1.384.261-.521 0-.984-.087-1.39-.26a2.874 2.874 0 0 1-1.022-.73 3.3 3.3 0 0 1-.629-1.111 4.328 4.328 0 0 1-.215-1.39Zm1.828-.134v.134c0 .288.025.556.076.806s.131.47.241.66c.114.186.262.332.444.438.182.106.404.159.667.159.254 0 .472-.053.654-.159.182-.106.328-.252.438-.438.11-.19.19-.41.241-.66.055-.25.082-.518.082-.806v-.134c0-.279-.027-.541-.082-.787a2.066 2.066 0 0 0-.248-.66 1.23 1.23 0 0 0-.438-.457 1.253 1.253 0 0 0-.66-.165c-.258 0-.478.055-.66.165-.178.11-.324.263-.438.457-.11.19-.19.41-.241.66a3.866 3.866 0 0 0-.076.787Zm9.508 1.95v-3.06c0-.22-.036-.409-.107-.565a.807.807 0 0 0-.337-.375c-.148-.089-.341-.133-.578-.133a1.19 1.19 0 0 0-.526.108.756.756 0 0 0-.343.298.82.82 0 0 0-.121.45h-1.828c0-.291.068-.568.203-.83.136-.263.332-.494.591-.693.258-.203.564-.361.92-.476.36-.114.762-.171 1.206-.171.533 0 1.007.089 1.422.267.415.177.74.444.977.8.242.355.362.8.362 1.332v2.94c0 .376.024.685.07.926.047.237.114.444.203.622V70h-1.847a2.615 2.615 0 0 1-.203-.698 5.8 5.8 0 0 1-.064-.85Zm.242-2.635.012 1.035h-1.022c-.241 0-.45.027-.628.082a1.166 1.166 0 0 0-.438.235.911.911 0 0 0-.254.343 1.182 1.182 0 0 0-.076.431.765.765 0 0 0 .419.717c.135.068.294.102.476.102.275 0 .514-.055.717-.165.203-.11.36-.245.47-.406a.852.852 0 0 0 .178-.457l.482.774a3.19 3.19 0 0 1-.279.54c-.115.186-.26.362-.438.527-.178.16-.392.294-.641.4-.25.101-.546.152-.889.152-.436 0-.832-.087-1.187-.26a2.163 2.163 0 0 1-.838-.73 1.918 1.918 0 0 1-.305-1.067c0-.36.068-.679.204-.958.135-.28.334-.514.596-.705.267-.194.599-.34.997-.438a5.63 5.63 0 0 1 1.384-.152h1.06Zm7.065 2.685V60.25h1.84V70h-1.656l-.184-1.498Zm-4.342-1.854v-.133c0-.525.059-1 .178-1.428a3.31 3.31 0 0 1 .52-1.11c.229-.31.51-.549.844-.718.335-.17.715-.254 1.143-.254.402 0 .753.084 1.054.254.304.17.562.41.774.723.216.31.389.675.52 1.099.132.418.227.878.286 1.377v.292a7.25 7.25 0 0 1-.286 1.333c-.131.41-.304.77-.52 1.08-.212.304-.47.54-.774.71-.305.17-.661.254-1.067.254-.427 0-.808-.087-1.142-.26a2.412 2.412 0 0 1-.838-.73 3.471 3.471 0 0 1-.514-1.105 5.098 5.098 0 0 1-.178-1.384Zm1.828-.133v.133c0 .284.021.549.063.794.047.245.121.463.223.654.105.186.241.332.406.438.169.101.374.152.616.152.313 0 .571-.07.774-.21.203-.143.358-.34.463-.59.11-.25.174-.537.191-.863v-.832a2.983 2.983 0 0 0-.115-.717 1.564 1.564 0 0 0-.266-.552 1.17 1.17 0 0 0-.432-.356 1.333 1.333 0 0 0-.603-.127c-.237 0-.44.056-.609.166a1.215 1.215 0 0 0-.413.438 2.35 2.35 0 0 0-.228.66c-.047.25-.07.52-.07.812Z"/><rect width="110" height="30" x="230" y="90" fill="#FF206E" rx="2"/><path fill="#fff" d="M259.819 110h-2.012l.012-1.485h2c.499 0 .92-.112 1.263-.337.343-.228.601-.56.774-.996.178-.436.267-.963.267-1.581v-.451c0-.474-.051-.89-.152-1.25a2.512 2.512 0 0 0-.438-.908 1.84 1.84 0 0 0-.718-.552 2.366 2.366 0 0 0-.977-.19h-2.07v-1.492h2.07c.618 0 1.183.106 1.695.317a3.84 3.84 0 0 1 1.339.895c.377.39.666.855.87 1.397a4.96 4.96 0 0 1 .311 1.796v.438a4.99 4.99 0 0 1-.311 1.796 4.006 4.006 0 0 1-.87 1.397 3.866 3.866 0 0 1-1.339.895 4.57 4.57 0 0 1-1.714.311Zm-.933-9.242V110h-1.905v-9.242h1.905Zm6.144 5.878v-.134c0-.503.072-.967.216-1.39a3.23 3.23 0 0 1 .628-1.111 2.833 2.833 0 0 1 1.016-.73c.402-.177.863-.266 1.384-.266.52 0 .984.089 1.39.266.406.174.747.417 1.022.73.279.314.491.684.635 1.111.144.423.216.887.216 1.39v.134c0 .499-.072.962-.216 1.39a3.255 3.255 0 0 1-.635 1.111 2.825 2.825 0 0 1-1.016.73c-.402.173-.863.26-1.383.26-.521 0-.984-.087-1.391-.26a2.891 2.891 0 0 1-1.022-.73 3.306 3.306 0 0 1-.628-1.111 4.331 4.331 0 0 1-.216-1.39Zm1.828-.134v.134c0 .288.026.556.076.806.051.25.132.47.242.66.114.186.262.332.444.438.182.106.404.159.667.159.253 0 .471-.053.653-.159a1.21 1.21 0 0 0 .438-.438c.11-.19.191-.41.242-.66.055-.25.082-.518.082-.806v-.134a3.6 3.6 0 0 0-.082-.787 2.1 2.1 0 0 0-.248-.66 1.234 1.234 0 0 0-.438-.457 1.253 1.253 0 0 0-.66-.165c-.258 0-.478.055-.66.165a1.3 1.3 0 0 0-.438.457c-.11.191-.191.411-.242.66-.05.246-.076.508-.076.787Zm7.764 1.721 1.428-5.091h1.161l-.374 1.999-1.428 4.869h-.972l.185-1.777Zm-.724-5.091 1.022 5.084.095 1.784h-1.143l-1.739-6.868h1.765Zm4.621 5.002.997-5.002h1.771l-1.74 6.868h-1.136l.108-1.866Zm-1.149-5.002 1.422 5.053.197 1.815h-.978l-1.428-4.862-.362-2.006h1.149Zm6.627 1.466V110h-1.828v-6.868h1.714l.114 1.466Zm-.267 1.727h-.495c0-.508.066-.965.197-1.371.131-.411.315-.76.552-1.048.237-.292.519-.514.845-.666.33-.157.698-.235 1.104-.235.322 0 .616.046.882.14.267.093.495.241.686.444.195.203.343.472.444.806.106.334.159.743.159 1.225V110h-1.841v-4.386c0-.305-.042-.542-.127-.711a.713.713 0 0 0-.374-.356 1.462 1.462 0 0 0-.597-.108c-.245 0-.459.049-.641.146a1.27 1.27 0 0 0-.444.407 1.917 1.917 0 0 0-.261.596 2.942 2.942 0 0 0-.089.737Zm7.694-6.075V110h-1.835v-9.75h1.835Zm1.219 6.386v-.134c0-.503.071-.967.215-1.39.144-.427.354-.797.629-1.111a2.82 2.82 0 0 1 1.015-.73c.402-.177.864-.266 1.384-.266.521 0 .984.089 1.39.266.407.174.747.417 1.022.73.28.314.491.684.635 1.111.144.423.216.887.216 1.39v.134c0 .499-.072.962-.216 1.39a3.239 3.239 0 0 1-.635 1.111 2.82 2.82 0 0 1-1.015.73c-.402.173-.864.26-1.384.26-.521 0-.984-.087-1.39-.26a2.883 2.883 0 0 1-1.022-.73 3.309 3.309 0 0 1-.629-1.111 4.331 4.331 0 0 1-.215-1.39Zm1.828-.134v.134c0 .288.025.556.076.806s.131.47.241.66c.114.186.262.332.444.438.182.106.404.159.667.159.254 0 .472-.053.654-.159a1.21 1.21 0 0 0 .438-.438c.11-.19.19-.41.241-.66.055-.25.082-.518.082-.806v-.134a3.6 3.6 0 0 0-.082-.787 2.076 2.076 0 0 0-.248-.66 1.234 1.234 0 0 0-.438-.457 1.253 1.253 0 0 0-.66-.165c-.258 0-.478.055-.66.165a1.3 1.3 0 0 0-.438.457c-.11.191-.19.411-.241.66a3.87 3.87 0 0 0-.076.787Zm9.508 1.949v-3.059c0-.22-.036-.409-.107-.565a.807.807 0 0 0-.337-.375c-.148-.089-.341-.133-.578-.133a1.19 1.19 0 0 0-.526.108.753.753 0 0 0-.343.298.82.82 0 0 0-.121.451h-1.828c0-.292.068-.569.203-.832.136-.262.332-.493.591-.692.258-.203.564-.361.92-.476.36-.114.762-.171 1.206-.171.533 0 1.007.089 1.422.266.415.178.74.445.977.8.242.356.362.8.362 1.333v2.939c0 .377.024.686.07.927.047.237.114.444.203.622V110h-1.847a2.615 2.615 0 0 1-.203-.698 5.804 5.804 0 0 1-.064-.851Zm.242-2.634.012 1.035h-1.022c-.241 0-.45.027-.628.082a1.16 1.16 0 0 0-.438.235.91.91 0 0 0-.254.343 1.18 1.18 0 0 0-.076.431c0 .157.036.299.108.426a.77.77 0 0 0 .311.292c.135.067.294.101.476.101.275 0 .514-.055.717-.165.203-.11.36-.245.47-.406a.853.853 0 0 0 .178-.457l.482.774a3.167 3.167 0 0 1-.279.54 2.54 2.54 0 0 1-.438.527 2.272 2.272 0 0 1-.641.4c-.25.101-.546.152-.889.152-.436 0-.832-.087-1.187-.26a2.165 2.165 0 0 1-.838-.73 1.919 1.919 0 0 1-.305-1.067c0-.359.068-.679.204-.958.135-.279.334-.514.596-.705a2.83 2.83 0 0 1 .997-.438 5.655 5.655 0 0 1 1.384-.152h1.06Zm7.065 2.685v-8.252h1.84V110h-1.656l-.184-1.498Zm-4.342-1.854v-.133c0-.525.059-1.001.178-1.428.118-.432.291-.802.52-1.111.229-.309.51-.548.844-.717a2.5 2.5 0 0 1 1.143-.254c.402 0 .753.085 1.054.254.304.169.562.41.774.723.216.309.389.675.52 1.099.132.419.227.878.286 1.377v.292a7.245 7.245 0 0 1-.286 1.333 3.99 3.99 0 0 1-.52 1.079c-.212.305-.47.542-.774.711a2.167 2.167 0 0 1-1.067.254c-.427 0-.808-.087-1.142-.26a2.42 2.42 0 0 1-.838-.73 3.475 3.475 0 0 1-.514-1.105 5.095 5.095 0 0 1-.178-1.384Zm1.828-.133v.133c0 .284.021.548.063.794a2.3 2.3 0 0 0 .223.654c.105.186.241.332.406.438.169.101.374.152.616.152.313 0 .571-.07.774-.209.203-.144.358-.341.463-.591.11-.249.174-.537.191-.863v-.832a2.988 2.988 0 0 0-.115-.717 1.56 1.56 0 0 0-.266-.552 1.18 1.18 0 0 0-.432-.356 1.341 1.341 0 0 0-.603-.127c-.237 0-.44.055-.609.165a1.218 1.218 0 0 0-.413.438 2.365 2.365 0 0 0-.228.661c-.047.249-.07.52-.07.812Z"/><rect width="110" height="30" x="230" y="130" fill="#FF206E" rx="2"/><path fill="#fff" d="M259.819 150h-2.012l.012-1.485h2c.499 0 .92-.112 1.263-.337.343-.228.601-.56.774-.996.178-.436.267-.963.267-1.581v-.451c0-.474-.051-.89-.152-1.25a2.512 2.512 0 0 0-.438-.908 1.84 1.84 0 0 0-.718-.552 2.366 2.366 0 0 0-.977-.19h-2.07v-1.492h2.07c.618 0 1.183.106 1.695.317a3.84 3.84 0 0 1 1.339.895c.377.39.666.855.87 1.397a4.96 4.96 0 0 1 .311 1.796v.438a4.99 4.99 0 0 1-.311 1.796 4.006 4.006 0 0 1-.87 1.397 3.866 3.866 0 0 1-1.339.895 4.57 4.57 0 0 1-1.714.311Zm-.933-9.242V150h-1.905v-9.242h1.905Zm6.144 5.878v-.134c0-.503.072-.967.216-1.39a3.23 3.23 0 0 1 .628-1.111 2.833 2.833 0 0 1 1.016-.73c.402-.177.863-.266 1.384-.266.52 0 .984.089 1.39.266.406.174.747.417 1.022.73.279.314.491.684.635 1.111.144.423.216.887.216 1.39v.134c0 .499-.072.962-.216 1.39a3.255 3.255 0 0 1-.635 1.111 2.825 2.825 0 0 1-1.016.73c-.402.173-.863.26-1.383.26-.521 0-.984-.087-1.391-.26a2.891 2.891 0 0 1-1.022-.73 3.306 3.306 0 0 1-.628-1.111 4.331 4.331 0 0 1-.216-1.39Zm1.828-.134v.134c0 .288.026.556.076.806.051.25.132.47.242.66.114.186.262.332.444.438.182.106.404.159.667.159.253 0 .471-.053.653-.159a1.21 1.21 0 0 0 .438-.438c.11-.19.191-.41.242-.66.055-.25.082-.518.082-.806v-.134a3.6 3.6 0 0 0-.082-.787 2.1 2.1 0 0 0-.248-.66 1.234 1.234 0 0 0-.438-.457 1.253 1.253 0 0 0-.66-.165c-.258 0-.478.055-.66.165a1.3 1.3 0 0 0-.438.457c-.11.191-.191.411-.242.66-.05.246-.076.508-.076.787Zm7.764 1.721 1.428-5.091h1.161l-.374 1.999-1.428 4.869h-.972l.185-1.777Zm-.724-5.091 1.022 5.084.095 1.784h-1.143l-1.739-6.868h1.765Zm4.621 5.002.997-5.002h1.771l-1.74 6.868h-1.136l.108-1.866Zm-1.149-5.002 1.422 5.053.197 1.815h-.978l-1.428-4.862-.362-2.006h1.149Zm6.627 1.466V150h-1.828v-6.868h1.714l.114 1.466Zm-.267 1.727h-.495c0-.508.066-.965.197-1.371.131-.411.315-.76.552-1.048.237-.292.519-.514.845-.666.33-.157.698-.235 1.104-.235.322 0 .616.046.882.14.267.093.495.241.686.444.195.203.343.472.444.806.106.334.159.743.159 1.225V150h-1.841v-4.386c0-.305-.042-.542-.127-.711a.713.713 0 0 0-.374-.356 1.462 1.462 0 0 0-.597-.108c-.245 0-.459.049-.641.146a1.27 1.27 0 0 0-.444.407 1.917 1.917 0 0 0-.261.596 2.942 2.942 0 0 0-.089.737Zm7.694-6.075V150h-1.835v-9.75h1.835Zm1.219 6.386v-.134c0-.503.071-.967.215-1.39.144-.427.354-.797.629-1.111a2.82 2.82 0 0 1 1.015-.73c.402-.177.864-.266 1.384-.266.521 0 .984.089 1.39.266.407.174.747.417 1.022.73.28.314.491.684.635 1.111.144.423.216.887.216 1.39v.134c0 .499-.072.962-.216 1.39a3.239 3.239 0 0 1-.635 1.111 2.82 2.82 0 0 1-1.015.73c-.402.173-.864.26-1.384.26-.521 0-.984-.087-1.39-.26a2.883 2.883 0 0 1-1.022-.73 3.309 3.309 0 0 1-.629-1.111 4.331 4.331 0 0 1-.215-1.39Zm1.828-.134v.134c0 .288.025.556.076.806s.131.47.241.66c.114.186.262.332.444.438.182.106.404.159.667.159.254 0 .472-.053.654-.159a1.21 1.21 0 0 0 .438-.438c.11-.19.19-.41.241-.66.055-.25.082-.518.082-.806v-.134a3.6 3.6 0 0 0-.082-.787 2.076 2.076 0 0 0-.248-.66 1.234 1.234 0 0 0-.438-.457 1.253 1.253 0 0 0-.66-.165c-.258 0-.478.055-.66.165a1.3 1.3 0 0 0-.438.457c-.11.191-.19.411-.241.66a3.87 3.87 0 0 0-.076.787Zm9.508 1.949v-3.059c0-.22-.036-.409-.107-.565a.807.807 0 0 0-.337-.375c-.148-.089-.341-.133-.578-.133a1.19 1.19 0 0 0-.526.108.753.753 0 0 0-.343.298.82.82 0 0 0-.121.451h-1.828c0-.292.068-.569.203-.832.136-.262.332-.493.591-.692.258-.203.564-.361.92-.476.36-.114.762-.171 1.206-.171.533 0 1.007.089 1.422.266.415.178.74.445.977.8.242.356.362.8.362 1.333v2.939c0 .377.024.686.07.927.047.237.114.444.203.622V150h-1.847a2.615 2.615 0 0 1-.203-.698 5.804 5.804 0 0 1-.064-.851Zm.242-2.634.012 1.035h-1.022c-.241 0-.45.027-.628.082a1.16 1.16 0 0 0-.438.235.91.91 0 0 0-.254.343 1.18 1.18 0 0 0-.076.431c0 .157.036.299.108.426a.77.77 0 0 0 .311.292c.135.067.294.101.476.101.275 0 .514-.055.717-.165.203-.11.36-.245.47-.406a.853.853 0 0 0 .178-.457l.482.774a3.167 3.167 0 0 1-.279.54 2.54 2.54 0 0 1-.438.527 2.272 2.272 0 0 1-.641.4c-.25.101-.546.152-.889.152-.436 0-.832-.087-1.187-.26a2.165 2.165 0 0 1-.838-.73 1.919 1.919 0 0 1-.305-1.067c0-.359.068-.679.204-.958.135-.279.334-.514.596-.705a2.83 2.83 0 0 1 .997-.438 5.655 5.655 0 0 1 1.384-.152h1.06Zm7.065 2.685v-8.252h1.84V150h-1.656l-.184-1.498Zm-4.342-1.854v-.133c0-.525.059-1.001.178-1.428.118-.432.291-.802.52-1.111.229-.309.51-.548.844-.717a2.5 2.5 0 0 1 1.143-.254c.402 0 .753.085 1.054.254.304.169.562.41.774.723.216.309.389.675.52 1.099.132.419.227.878.286 1.377v.292a7.245 7.245 0 0 1-.286 1.333 3.99 3.99 0 0 1-.52 1.079c-.212.305-.47.542-.774.711a2.167 2.167 0 0 1-1.067.254c-.427 0-.808-.087-1.142-.26a2.42 2.42 0 0 1-.838-.73 3.475 3.475 0 0 1-.514-1.105 5.095 5.095 0 0 1-.178-1.384Zm1.828-.133v.133c0 .284.021.548.063.794a2.3 2.3 0 0 0 .223.654c.105.186.241.332.406.438.169.101.374.152.616.152.313 0 .571-.07.774-.209.203-.144.358-.341.463-.591.11-.249.174-.537.191-.863v-.832a2.988 2.988 0 0 0-.115-.717 1.56 1.56 0 0 0-.266-.552 1.18 1.18 0 0 0-.432-.356 1.341 1.341 0 0 0-.603-.127c-.237 0-.44.055-.609.165a1.218 1.218 0 0 0-.413.438 2.365 2.365 0 0 0-.228.661c-.047.249-.07.52-.07.812Z"/><rect width="110" height="30" x="230" y="170" fill="#FF206E" rx="2"/><path fill="#fff" d="M259.819 190h-2.012l.012-1.485h2c.499 0 .92-.112 1.263-.337.343-.228.601-.56.774-.996.178-.436.267-.963.267-1.581v-.451c0-.474-.051-.89-.152-1.25a2.512 2.512 0 0 0-.438-.908 1.84 1.84 0 0 0-.718-.552 2.366 2.366 0 0 0-.977-.19h-2.07v-1.492h2.07c.618 0 1.183.106 1.695.317a3.84 3.84 0 0 1 1.339.895c.377.39.666.855.87 1.397a4.96 4.96 0 0 1 .311 1.796v.438a4.99 4.99 0 0 1-.311 1.796 4.006 4.006 0 0 1-.87 1.397 3.866 3.866 0 0 1-1.339.895 4.57 4.57 0 0 1-1.714.311Zm-.933-9.242V190h-1.905v-9.242h1.905Zm6.144 5.878v-.134c0-.503.072-.967.216-1.39a3.23 3.23 0 0 1 .628-1.111 2.833 2.833 0 0 1 1.016-.73c.402-.177.863-.266 1.384-.266.52 0 .984.089 1.39.266.406.174.747.417 1.022.73.279.314.491.684.635 1.111.144.423.216.887.216 1.39v.134c0 .499-.072.962-.216 1.39a3.255 3.255 0 0 1-.635 1.111 2.825 2.825 0 0 1-1.016.73c-.402.173-.863.26-1.383.26-.521 0-.984-.087-1.391-.26a2.891 2.891 0 0 1-1.022-.73 3.306 3.306 0 0 1-.628-1.111 4.331 4.331 0 0 1-.216-1.39Zm1.828-.134v.134c0 .288.026.556.076.806.051.25.132.47.242.66.114.186.262.332.444.438.182.106.404.159.667.159.253 0 .471-.053.653-.159a1.21 1.21 0 0 0 .438-.438c.11-.19.191-.41.242-.66.055-.25.082-.518.082-.806v-.134a3.6 3.6 0 0 0-.082-.787 2.1 2.1 0 0 0-.248-.66 1.234 1.234 0 0 0-.438-.457 1.253 1.253 0 0 0-.66-.165c-.258 0-.478.055-.66.165a1.3 1.3 0 0 0-.438.457c-.11.191-.191.411-.242.66-.05.246-.076.508-.076.787Zm7.764 1.721 1.428-5.091h1.161l-.374 1.999-1.428 4.869h-.972l.185-1.777Zm-.724-5.091 1.022 5.084.095 1.784h-1.143l-1.739-6.868h1.765Zm4.621 5.002.997-5.002h1.771l-1.74 6.868h-1.136l.108-1.866Zm-1.149-5.002 1.422 5.053.197 1.815h-.978l-1.428-4.862-.362-2.006h1.149Zm6.627 1.466V190h-1.828v-6.868h1.714l.114 1.466Zm-.267 1.727h-.495c0-.508.066-.965.197-1.371.131-.411.315-.76.552-1.048.237-.292.519-.514.845-.666.33-.157.698-.235 1.104-.235.322 0 .616.046.882.14.267.093.495.241.686.444.195.203.343.472.444.806.106.334.159.743.159 1.225V190h-1.841v-4.386c0-.305-.042-.542-.127-.711a.713.713 0 0 0-.374-.356 1.462 1.462 0 0 0-.597-.108c-.245 0-.459.049-.641.146a1.27 1.27 0 0 0-.444.407 1.917 1.917 0 0 0-.261.596 2.942 2.942 0 0 0-.089.737Zm7.694-6.075V190h-1.835v-9.75h1.835Zm1.219 6.386v-.134c0-.503.071-.967.215-1.39.144-.427.354-.797.629-1.111a2.82 2.82 0 0 1 1.015-.73c.402-.177.864-.266 1.384-.266.521 0 .984.089 1.39.266.407.174.747.417 1.022.73.28.314.491.684.635 1.111.144.423.216.887.216 1.39v.134c0 .499-.072.962-.216 1.39a3.239 3.239 0 0 1-.635 1.111 2.82 2.82 0 0 1-1.015.73c-.402.173-.864.26-1.384.26-.521 0-.984-.087-1.39-.26a2.883 2.883 0 0 1-1.022-.73 3.309 3.309 0 0 1-.629-1.111 4.331 4.331 0 0 1-.215-1.39Zm1.828-.134v.134c0 .288.025.556.076.806s.131.47.241.66c.114.186.262.332.444.438.182.106.404.159.667.159.254 0 .472-.053.654-.159a1.21 1.21 0 0 0 .438-.438c.11-.19.19-.41.241-.66.055-.25.082-.518.082-.806v-.134a3.6 3.6 0 0 0-.082-.787 2.076 2.076 0 0 0-.248-.66 1.234 1.234 0 0 0-.438-.457 1.253 1.253 0 0 0-.66-.165c-.258 0-.478.055-.66.165a1.3 1.3 0 0 0-.438.457c-.11.191-.19.411-.241.66a3.87 3.87 0 0 0-.076.787Zm9.508 1.949v-3.059c0-.22-.036-.409-.107-.565a.807.807 0 0 0-.337-.375c-.148-.089-.341-.133-.578-.133a1.19 1.19 0 0 0-.526.108.753.753 0 0 0-.343.298.82.82 0 0 0-.121.451h-1.828c0-.292.068-.569.203-.832.136-.262.332-.493.591-.692.258-.203.564-.361.92-.476.36-.114.762-.171 1.206-.171.533 0 1.007.089 1.422.266.415.178.74.445.977.8.242.356.362.8.362 1.333v2.939c0 .377.024.686.07.927.047.237.114.444.203.622V190h-1.847a2.615 2.615 0 0 1-.203-.698 5.804 5.804 0 0 1-.064-.851Zm.242-2.634.012 1.035h-1.022c-.241 0-.45.027-.628.082a1.16 1.16 0 0 0-.438.235.91.91 0 0 0-.254.343 1.18 1.18 0 0 0-.076.431c0 .157.036.299.108.426a.77.77 0 0 0 .311.292c.135.067.294.101.476.101.275 0 .514-.055.717-.165.203-.11.36-.245.47-.406a.853.853 0 0 0 .178-.457l.482.774a3.167 3.167 0 0 1-.279.54 2.54 2.54 0 0 1-.438.527 2.272 2.272 0 0 1-.641.4c-.25.101-.546.152-.889.152-.436 0-.832-.087-1.187-.26a2.165 2.165 0 0 1-.838-.73 1.919 1.919 0 0 1-.305-1.067c0-.359.068-.679.204-.958.135-.279.334-.514.596-.705a2.83 2.83 0 0 1 .997-.438 5.655 5.655 0 0 1 1.384-.152h1.06Zm7.065 2.685v-8.252h1.84V190h-1.656l-.184-1.498Zm-4.342-1.854v-.133c0-.525.059-1.001.178-1.428.118-.432.291-.802.52-1.111.229-.309.51-.548.844-.717a2.5 2.5 0 0 1 1.143-.254c.402 0 .753.085 1.054.254.304.169.562.41.774.723.216.309.389.675.52 1.099.132.419.227.878.286 1.377v.292a7.245 7.245 0 0 1-.286 1.333 3.99 3.99 0 0 1-.52 1.079c-.212.305-.47.542-.774.711a2.167 2.167 0 0 1-1.067.254c-.427 0-.808-.087-1.142-.26a2.42 2.42 0 0 1-.838-.73 3.475 3.475 0 0 1-.514-1.105 5.095 5.095 0 0 1-.178-1.384Zm1.828-.133v.133c0 .284.021.548.063.794a2.3 2.3 0 0 0 .223.654c.105.186.241.332.406.438.169.101.374.152.616.152.313 0 .571-.07.774-.209.203-.144.358-.341.463-.591.11-.249.174-.537.191-.863v-.832a2.988 2.988 0 0 0-.115-.717 1.56 1.56 0 0 0-.266-.552 1.18 1.18 0 0 0-.432-.356 1.341 1.341 0 0 0-.603-.127c-.237 0-.44.055-.609.165a1.218 1.218 0 0 0-.413.438 2.365 2.365 0 0 0-.228.661c-.047.249-.07.52-.07.812Z"/><g filter="url(#b)"><path fill="#fff" fill-rule="evenodd" d="M328.278 70.386c.685 0 1.242-.556 1.242-1.242v-3.902a1.242 1.242 0 0 0-2.484 0v3.902c0 .686.556 1.242 1.242 1.242Zm-8.584-2.691a1.242 1.242 0 0 1 1.756 0l2.759 2.759a1.242 1.242 0 1 1-1.756 1.756l-2.759-2.76a1.242 1.242 0 0 1 0-1.755Zm25.68 20.32 7.389 7.39a1.242 1.242 0 0 1 0 1.755l-3.605 3.607a1.241 1.241 0 0 1-1.756 0l-7.389-7.39-3.045 5.272a1.24 1.24 0 0 1-2.228-.161l-9.376-23.51a1.241 1.241 0 0 1 1.613-1.613l23.508 9.377a1.242 1.242 0 0 1 .161 2.228l-5.272 3.045Zm-22.989-11.736c0-.686-.556-1.242-1.241-1.242h-3.902a1.242 1.242 0 1 0 0 2.484h3.902c.685 0 1.241-.556 1.241-1.242Zm-3.262 6.591 2.759-2.76a1.242 1.242 0 0 1 1.756 1.757l-2.759 2.76a1.24 1.24 0 0 1-1.756 0 1.242 1.242 0 0 1 0-1.757Zm14.743-11.232a1.239 1.239 0 0 1-1.756 0 1.242 1.242 0 0 1 0-1.756l2.759-2.759a1.242 1.242 0 0 1 1.756 1.756l-2.759 2.76Z" clip-rule="evenodd"/><path fill="#D9E7F7" d="m321.45 67.695.094-.094-.094.094Zm-1.756 0-.093-.094.093.094Zm4.515 2.759-.094.093.094-.093Zm0 1.756.094.093-.094-.093Zm-1.756 0-.093.093.093-.093Zm-2.759-2.76-.093.094.093-.093Zm33.069 25.954-.094.094.094-.094Zm-7.389-7.389-.066-.115-.15.087.122.122.094-.094Zm7.389 9.145.094.094-.094-.094Zm-3.605 3.607-.094-.094.094.094Zm-1.756 0 .093-.094-.093.094Zm-7.389-7.39.094-.094-.122-.122-.087.15.115.066Zm-3.045 5.272-.115-.067.115.067Zm-1.164.617.009-.132-.009.132Zm-1.064-.778-.124.049.124-.05Zm-9.376-23.51.123-.05-.123.05Zm.275-1.338-.093-.094.093.094Zm1.338-.275-.049.123.049-.123Zm23.508 9.377-.05.123h.001l.049-.123Zm.778 1.064-.132.01.132-.01Zm-.617 1.164-.067-.115.067.115Zm-29.502-7.45v.133-.132Zm.738 2.59-.094-.093.094.094Zm-2.759 2.76-.094-.094.094.094Zm4.515-2.76.094-.093-.094.094Zm0 1.757.094.094-.094-.094Zm-2.759 2.76-.094-.095.094.094Zm-1.756 0-.094.093.094-.094Zm14.743-12.989.094.094-.094-.094Zm-1.756 0-.094.094.094-.094Zm0-1.756.094.094-.094-.094Zm2.759-2.759-.094-.094.094.094Zm1.756 0 .093-.094-.093.094Zm0 1.756-.094-.094.094.094Zm-7.238.265a1.11 1.11 0 0 1-1.109 1.11v.264c.759 0 1.374-.615 1.374-1.374h-.265Zm0-3.902v3.902h.265v-3.902h-.265Zm-1.109-1.11a1.11 1.11 0 0 1 1.109 1.11h.265c0-.76-.615-1.375-1.374-1.375v.266Zm-1.109 1.11c0-.613.496-1.11 1.109-1.11v-.265c-.759 0-1.375.616-1.375 1.375h.266Zm0 3.902v-3.902h-.266v3.902h.266Zm1.109 1.11a1.109 1.109 0 0 1-1.109-1.11h-.266c0 .759.616 1.374 1.375 1.374v-.265Zm-6.734-2.653a1.374 1.374 0 0 0-1.943 0l.187.187a1.11 1.11 0 0 1 1.569 0l.187-.187Zm2.759 2.759-2.759-2.76-.187.188 2.758 2.76.188-.188Zm0 1.943a1.374 1.374 0 0 0 0-1.943l-.188.187a1.108 1.108 0 0 1 0 1.569l.188.187Zm-.972.403c.352 0 .704-.134.972-.403l-.188-.187c-.216.216-.5.325-.784.325v.265Zm-.971-.403c.268.269.62.403.971.403v-.265c-.284 0-.567-.109-.784-.325l-.187.187Zm-2.759-2.759 2.759 2.76.187-.188-2.759-2.76-.187.188Zm0-1.943a1.374 1.374 0 0 0 0 1.943l.187-.187a1.11 1.11 0 0 1 0-1.569l-.187-.187Zm33.256 27.71-7.389-7.39-.188.188 7.389 7.39.188-.188Zm0 1.943a1.374 1.374 0 0 0 0-1.943l-.188.187c.434.433.434 1.136.001 1.569l.187.187Zm-3.606 3.606 3.606-3.606-.187-.187-3.606 3.606.187.187Zm-.971.403c.364 0 .714-.145.971-.403l-.187-.187c-.208.208-.49.325-.784.325v.265Zm-.972-.403c.258.258.607.403.972.403v-.265c-.294 0-.577-.117-.785-.325l-.187.187Zm-7.389-7.389 7.389 7.389.187-.187-7.388-7.39-.188.188Zm-2.836 5.244 3.045-5.272-.23-.132-3.045 5.271.23.133Zm-1.289.683a1.373 1.373 0 0 0 1.289-.683l-.23-.132a1.107 1.107 0 0 1-1.04.55l-.019.266Zm-1.178-.861c.195.489.653.823 1.178.861l.019-.264c-.424-.03-.793-.3-.95-.695l-.247.098Zm-9.375-23.51 9.375 23.51.247-.098-9.376-23.51-.246.098Zm.305-1.481c-.389.388-.509.97-.305 1.48l.246-.097a1.11 1.11 0 0 1 .246-1.196l-.187-.187Zm1.48-.305a1.373 1.373 0 0 0-1.48.305l.187.188a1.11 1.11 0 0 1 1.195-.246l.098-.247Zm23.508 9.377-23.508-9.377-.098.247 23.507 9.377.099-.246Zm.861 1.178a1.374 1.374 0 0 0-.861-1.178l-.098.247c.394.157.664.526.695.95l.264-.019Zm-.683 1.289c.456-.263.721-.764.683-1.289l-.264.02a1.11 1.11 0 0 1-.552 1.04l.133.229Zm-5.272 3.045 5.272-3.045-.133-.23-5.271 3.045.132.23Zm-24.296-12.96a1.11 1.11 0 0 1 1.109 1.109h.265c0-.76-.615-1.374-1.374-1.374v.265Zm-3.902 0h3.902v-.266h-3.902v.266Zm-1.109 1.109c0-.613.496-1.11 1.109-1.11v-.264c-.759 0-1.375.615-1.375 1.374h.266Zm1.109 1.109a1.109 1.109 0 0 1-1.109-1.11h-.266c0 .76.616 1.375 1.375 1.375v-.265Zm3.902 0h-3.902v.265h3.902v-.265Zm1.109-1.11a1.11 1.11 0 0 1-1.109 1.11v.265c.759 0 1.374-.615 1.374-1.374h-.265Zm-.465 3.74-2.759 2.758.187.188 2.76-2.76-.188-.187Zm1.944 0a1.375 1.375 0 0 0-1.944-.001l.188.188a1.109 1.109 0 0 1 1.568 0l.188-.188Zm0 1.943a1.376 1.376 0 0 0 0-1.944l-.188.188a1.11 1.11 0 0 1 0 1.568l.188.188Zm-2.76 2.759 2.76-2.76-.188-.187-2.759 2.76.187.187Zm-.971.402c.351 0 .703-.134.971-.402l-.187-.188c-.217.217-.5.325-.784.325v.265Zm-.972-.402c.268.268.62.402.972.402v-.265c-.284 0-.568-.108-.785-.325l-.187.188Zm0-1.944a1.374 1.374 0 0 0 0 1.944l.187-.188a1.11 1.11 0 0 1 0-1.568l-.187-.188Zm13.959-10.641c.351 0 .703-.135.972-.403l-.188-.188c-.217.217-.5.325-.784.325v.266Zm-.972-.403c.268.268.62.403.972.403v-.266c-.284 0-.568-.108-.785-.325l-.187.188Zm0-1.944a1.374 1.374 0 0 0 0 1.944l.187-.188a1.108 1.108 0 0 1 .001-1.568l-.188-.188Zm2.759-2.759-2.759 2.76.188.187 2.758-2.76-.187-.187Zm1.943 0a1.374 1.374 0 0 0-1.943 0l.187.188a1.11 1.11 0 0 1 1.569 0l.187-.188Zm0 1.944a1.374 1.374 0 0 0 0-1.944l-.187.188a1.11 1.11 0 0 1 0 1.568l.187.188Zm-2.758 2.759 2.758-2.76-.187-.187-2.759 2.76.188.187Z"/></g></g><defs><clipPath id="a"><rect width="360" height="244" fill="#fff" rx="6"/></clipPath><filter id="b" width="143.479" height="143.483" x="269.454" y="13.476" color-interpolation-filters="sRGB" filterUnits="userSpaceOnUse"><feFlood flood-opacity="0" result="BackgroundImageFix"/><feColorMatrix in="SourceAlpha" result="hardAlpha" values="0 0 0 0 0 0 0 0 0 0 0 0 0 0 0 0 0 0 127 0"/><feOffset dx="6.63" dy="2.652"/><feGaussianBlur stdDeviation="26.522"/><feColorMatrix values="0 0 0 0 0 0 0 0 0 0.460526 0 0 0 0 1 0 0 0 0.66 0"/><feBlend in2="BackgroundImageFix" result="effect1_dropShadow_820_1579"/><feColorMatrix in="SourceAlpha" result="hardAlpha" values="0 0 0 0 0 0 0 0 0 0 0 0 0 0 0 0 0 0 127 0"/><feOffset dx="6.63" dy="6.63"/><feGaussianBlur stdDeviation="6.63"/><feColorMatrix values="0 0 0 0 0.383333 0 0 0 0 0.360972 0 0 0 0 0.360972 0 0 0 0.08 0"/><feBlend in2="effect1_dropShadow_820_1579" result="effect2_dropShadow_820_1579"/><feBlend in="SourceGraphic" in2="effect2_dropShadow_820_1579" result="shape"/></filter></defs></svg>