<svg width="110" height="41" viewBox="0 0 110 41" fill="none" xmlns="http://www.w3.org/2000/svg">
<g opacity="0.6" filter="url(#filter0_f_3_396)">
<rect x="9.80875" y="9.50748" width="25.4585" height="21.3043" rx="5.82776" fill="#383868"/>
</g>
<mask id="mask0_3_396" style="mask-type:alpha" maskUnits="userSpaceOnUse" x="7" y="3" width="31" height="26">
<path d="M7.82141 10.3362C7.82141 9.64636 7.82141 9.30142 7.85878 9.00108C8.1009 7.05535 9.4831 5.44494 11.3659 4.91496C11.6565 4.83316 11.9967 4.78176 12.677 4.67897C14.1483 4.45667 14.884 4.34552 15.6186 4.25413C20.2523 3.6777 24.9393 3.6777 29.5729 4.25413C30.3076 4.34552 31.0432 4.45667 32.5145 4.67897C33.1949 4.78176 33.5351 4.83316 33.8257 4.91496C35.7084 5.44494 37.0906 7.05535 37.3328 9.00108C37.3701 9.30142 37.3701 9.64636 37.3701 10.3362V21.594C37.3701 22.2839 37.3701 22.6288 37.3328 22.9292C37.0906 24.8749 35.7084 26.4853 33.8257 27.0153C33.5351 27.0971 33.1949 27.1485 32.5145 27.2513C31.0432 27.4736 30.3076 27.5847 29.5729 27.6761C24.9393 28.2525 20.2523 28.2525 15.6186 27.6761C14.884 27.5847 14.1483 27.4736 12.677 27.2513C11.9967 27.1485 11.6565 27.0971 11.3659 27.0153C9.4831 26.4853 8.1009 24.8749 7.85878 22.9292C7.82141 22.6288 7.82141 22.2839 7.82141 21.594V10.3362Z" fill="#9F9F9F"/>
</mask>
<g mask="url(#mask0_3_396)">
<path d="M7.82141 10.3362C7.82141 9.64636 7.82141 9.30142 7.85878 9.00108C8.1009 7.05535 9.4831 5.44494 11.3659 4.91496C11.6565 4.83316 11.9967 4.78176 12.677 4.67897C14.1483 4.45667 14.884 4.34552 15.6186 4.25413C20.2523 3.6777 24.9393 3.6777 29.5729 4.25413C30.3076 4.34552 31.0432 4.45667 32.5145 4.67897C33.1949 4.78176 33.5351 4.83316 33.8257 4.91496C35.7084 5.44494 37.0906 7.05535 37.3328 9.00108C37.3701 9.30142 37.3701 9.64636 37.3701 10.3362V21.594C37.3701 22.2839 37.3701 22.6288 37.3328 22.9292C37.0906 24.8749 35.7084 26.4853 33.8257 27.0153C33.5351 27.0971 33.1949 27.1485 32.5145 27.2513C31.0432 27.4736 30.3076 27.5847 29.5729 27.6761C24.9393 28.2525 20.2523 28.2525 15.6186 27.6761C14.884 27.5847 14.1483 27.4736 12.677 27.2513C11.9967 27.1485 11.6565 27.0971 11.3659 27.0153C9.4831 26.4853 8.1009 24.8749 7.85878 22.9292C7.82141 22.6288 7.82141 22.2839 7.82141 21.594V10.3362Z" fill="#5FD6FF"/>
<path d="M26.9704 9.58672C28.745 11.7171 29.6323 12.7822 30.0197 13.9542C30.4583 15.2809 30.4583 16.7141 30.0197 18.0408C29.6323 19.2128 28.745 20.2779 26.9704 22.4083L-17.0401 75.2426C-21.7928 80.9481 -24.1692 83.8009 -26.2023 84.2452C-28.4876 84.7446 -30.8558 83.8834 -32.2905 82.0312C-33.5669 80.3834 -33.5669 76.6664 -33.5669 69.2325L-33.5669 -37.2374C-33.5669 -44.6714 -33.5669 -48.3883 -32.2905 -50.0362C-30.8558 -51.8884 -28.4876 -52.7496 -26.2023 -52.2502C-24.1692 -51.8059 -21.7928 -48.9531 -17.0401 -43.2476L26.9704 9.58672Z" fill="white"/>
<path d="M21.0769 9.66939C23.803 11.7229 25.166 12.7496 25.6984 13.9857C26.2512 15.2694 26.2512 16.7249 25.6984 18.0085C25.166 19.2446 23.803 20.2713 21.0769 22.3248L-8.28345 44.4412C-12.1712 47.3697 -14.1151 48.834 -15.736 48.8731C-17.4127 48.9136 -19.0004 48.1184 -19.9752 46.75C-20.9176 45.427 -20.9176 42.9892 -20.9176 38.1135L-20.9175 -6.11924C-20.9175 -10.9949 -20.9175 -13.4328 -19.9752 -14.7558C-19.0004 -16.1242 -17.4127 -16.9194 -15.736 -16.8789C-14.1151 -16.8398 -12.1712 -15.3755 -8.28346 -12.4469L21.0769 9.66939Z" fill="#2C2B48"/>
<path d="M19.7859 14.6496C20.4555 15.1006 20.7902 15.3261 20.9071 15.6098C21.0093 15.8579 21.0093 16.1365 20.9071 16.3845C20.7902 16.6682 20.4555 16.8938 19.7859 17.3448L15.9599 19.9221C15.1411 20.4737 14.7317 20.7495 14.392 20.73C14.0961 20.713 13.8225 20.5668 13.6434 20.33C13.4379 20.0581 13.4379 19.5636 13.4379 18.5745L13.4379 13.4198C13.4379 12.4308 13.4379 11.9362 13.6434 11.6644C13.8225 11.4276 14.0961 11.2814 14.392 11.2644C14.7317 11.2449 15.1411 11.5207 15.9599 12.0723L19.7859 14.6496Z" fill="#5FD6FF"/>
</g>
<g opacity="0.1">
<mask id="mask1_3_396" style="mask-type:alpha" maskUnits="userSpaceOnUse" x="7" y="3" width="31" height="26">
<path d="M7.82141 10.3188C7.82141 9.63073 7.82141 9.28671 7.85878 8.98718C8.1009 7.04667 9.4831 5.44059 11.3659 4.91203C11.6565 4.83044 11.9967 4.77918 12.677 4.67667C14.1483 4.45496 14.884 4.34411 15.6186 4.25297C20.2523 3.67809 24.9393 3.67809 29.5729 4.25297C30.3076 4.34411 31.0432 4.45496 32.5145 4.67667C33.1949 4.77918 33.5351 4.83044 33.8257 4.91203C35.7084 5.44059 37.0906 7.04667 37.3328 8.98718C37.3701 9.28671 37.3701 9.63073 37.3701 10.3188V21.5463C37.3701 22.2343 37.3701 22.5784 37.3328 22.8779C37.0906 24.8184 35.7084 26.4245 33.8257 26.953C33.5351 27.0346 33.1949 27.0859 32.5145 27.1884C31.0432 27.4101 30.3076 27.521 29.5729 27.6121C24.9393 28.187 20.2523 28.187 15.6186 27.6121C14.884 27.521 14.1483 27.4101 12.677 27.1884C11.9967 27.0859 11.6565 27.0346 11.3659 26.953C9.4831 26.4245 8.1009 24.8184 7.85878 22.8779C7.82141 22.5784 7.82141 22.2343 7.82141 21.5463V10.3188Z" fill="#9F9F9F"/>
</mask>
<g mask="url(#mask1_3_396)">
<path d="M6.20258 4.2257H39.1919V3.82092H6.20258V4.2257Z" fill="url(#paint0_radial_3_396)"/>
<path d="M6.20258 5.03525H39.1919V4.63048H6.20258V5.03525Z" fill="url(#paint1_radial_3_396)"/>
<path d="M39.1919 5.84481H6.20258V5.44003H39.1919V5.84481Z" fill="url(#paint2_radial_3_396)"/>
<path d="M6.20258 6.65436H39.1919V6.24959H6.20258V6.65436Z" fill="url(#paint3_radial_3_396)"/>
<path d="M39.1919 7.46392H6.20258V7.05914H39.1919V7.46392Z" fill="url(#paint4_radial_3_396)"/>
<path d="M6.20258 8.27347H39.1919V7.86869H6.20258V8.27347Z" fill="url(#paint5_radial_3_396)"/>
<path d="M39.1919 9.08302H6.20258V8.67825H39.1919V9.08302Z" fill="url(#paint6_radial_3_396)"/>
<path d="M6.20258 9.89258H39.1919V9.4878H6.20258V9.89258Z" fill="url(#paint7_radial_3_396)"/>
<path d="M39.1919 10.7021H6.20258V10.2974H39.1919V10.7021Z" fill="url(#paint8_radial_3_396)"/>
<path d="M6.20258 11.5117H39.1919V11.1069H6.20258V11.5117Z" fill="url(#paint9_radial_3_396)"/>
<path d="M39.1919 12.3212H6.20258V11.9165H39.1919V12.3212Z" fill="url(#paint10_radial_3_396)"/>
<path d="M6.20258 13.1308H39.1919V12.726H6.20258V13.1308Z" fill="url(#paint11_radial_3_396)"/>
<path d="M39.1919 13.9403H6.20258V13.5356H39.1919V13.9403Z" fill="url(#paint12_radial_3_396)"/>
<path d="M6.20258 14.7499H39.1919V14.3451H6.20258V14.7499Z" fill="url(#paint13_radial_3_396)"/>
<path d="M39.1919 15.5595H6.20258V15.1547H39.1919V15.5595Z" fill="url(#paint14_radial_3_396)"/>
<path d="M6.20258 16.369H39.1919V15.9642H6.20258V16.369Z" fill="url(#paint15_radial_3_396)"/>
<path d="M39.1919 17.1786H6.20258V16.7738H39.1919V17.1786Z" fill="url(#paint16_radial_3_396)"/>
<path d="M6.20258 17.9881H39.1919V17.5833H6.20258V17.9881Z" fill="url(#paint17_radial_3_396)"/>
<path d="M39.1919 18.7977H6.20258V18.3929H39.1919V18.7977Z" fill="url(#paint18_radial_3_396)"/>
<path d="M6.20258 19.6072H39.1919V19.2025H6.20258V19.6072Z" fill="url(#paint19_radial_3_396)"/>
<path d="M39.1919 20.4168H6.20258V20.012H39.1919V20.4168Z" fill="url(#paint20_radial_3_396)"/>
<path d="M6.20258 21.2263H39.1919V20.8216H6.20258V21.2263Z" fill="url(#paint21_radial_3_396)"/>
<path d="M39.1919 22.0359H6.20258V21.6311H39.1919V22.0359Z" fill="url(#paint22_radial_3_396)"/>
<path d="M6.20258 22.8454H39.1919V22.4407H6.20258V22.8454Z" fill="url(#paint23_radial_3_396)"/>
<path d="M39.1919 23.655H6.20258V23.2502H39.1919V23.655Z" fill="url(#paint24_radial_3_396)"/>
<path d="M6.20258 24.4646H39.1919V24.0598H6.20258V24.4646Z" fill="url(#paint25_radial_3_396)"/>
<path d="M39.1919 26.0837H6.20258V25.6789H39.1919V26.0837Z" fill="url(#paint26_radial_3_396)"/>
<path d="M6.20258 26.8932H39.1919V26.4884H6.20258V26.8932Z" fill="url(#paint27_radial_3_396)"/>
<path d="M39.1919 27.7028H6.20258V27.298H39.1919V27.7028Z" fill="url(#paint28_radial_3_396)"/>
<path d="M6.20258 25.2741H39.1919V24.8693H6.20258V25.2741Z" fill="url(#paint29_radial_3_396)"/>
</g>
</g>
<g style="mix-blend-mode:multiply" opacity="0.4">
<path d="M7.82141 10.3509C7.82141 9.66283 7.82141 9.31882 7.85878 9.01929C8.1009 7.07877 9.4831 5.47269 11.3659 4.94414C11.6565 4.86255 11.9967 4.81129 12.677 4.70877C14.1483 4.48707 14.884 4.37622 15.6186 4.28507C20.2523 3.71019 24.9393 3.71019 29.5729 4.28507C30.3076 4.37622 31.0432 4.48707 32.5145 4.70877C33.1949 4.81129 33.5351 4.86255 33.8257 4.94414C35.7084 5.47269 37.0906 7.07877 37.3328 9.01929C37.3701 9.31882 37.3701 9.66283 37.3701 10.3509V21.5784C37.3701 22.2665 37.3701 22.6105 37.3328 22.91C37.0906 24.8505 35.7084 26.4566 33.8257 26.9852C33.5351 27.0667 33.1949 27.118 32.5145 27.2205C31.0432 27.4422 30.3076 27.5531 29.5729 27.6442C24.9393 28.2191 20.2523 28.2191 15.6186 27.6442C14.884 27.5531 14.1483 27.4422 12.677 27.2205C11.9967 27.118 11.6565 27.0667 11.3659 26.9852C9.4831 26.4566 8.1009 24.8505 7.85878 22.91C7.82141 22.6105 7.82141 22.2665 7.82141 21.5784V10.3509Z" fill="url(#paint30_linear_3_396)"/>
</g>
<path opacity="0.2" fill-rule="evenodd" clip-rule="evenodd" d="M36.3582 21.5784V10.3509C36.3582 9.63378 36.3563 9.36628 36.3286 9.14457C36.1369 7.60834 35.0427 6.33686 33.5522 5.91841C33.3371 5.85803 33.0728 5.81626 32.3637 5.70942C30.8875 5.48697 30.1669 5.37846 29.4483 5.28932C24.8974 4.7247 20.2941 4.7247 15.7432 5.28932C15.0247 5.37846 14.304 5.48697 12.8278 5.70942C12.1187 5.81626 11.8545 5.85803 11.6394 5.91841C10.1489 6.33686 9.05462 7.60834 8.86294 9.14457C8.83528 9.36628 8.83335 9.63378 8.83335 10.3509V21.5784C8.83335 22.2955 8.83528 22.563 8.86294 22.7847C9.05462 24.321 10.1489 25.5924 11.6394 26.0109C11.8545 26.0713 12.1187 26.113 12.8278 26.2199C14.304 26.4423 15.0247 26.5508 15.7432 26.64C20.2941 27.2046 24.8974 27.2046 29.4483 26.64C30.1669 26.5508 30.8875 26.4423 32.3637 26.2199C33.0728 26.113 33.3371 26.0713 33.5522 26.0109C35.0427 25.5924 36.1369 24.321 36.3286 22.7847C36.3563 22.563 36.3582 22.2955 36.3582 21.5784ZM7.85878 9.01929C7.82141 9.31882 7.82141 9.66283 7.82141 10.3509V21.5784C7.82141 22.2665 7.82141 22.6105 7.85878 22.91C8.1009 24.8505 9.4831 26.4566 11.3659 26.9852C11.6565 27.0667 11.9967 27.118 12.677 27.2205L12.677 27.2205C14.1483 27.4422 14.884 27.5531 15.6186 27.6442C20.2523 28.2191 24.9393 28.2191 29.5729 27.6442C30.3076 27.5531 31.0432 27.4422 32.5145 27.2205C33.1949 27.118 33.5351 27.0667 33.8257 26.9852C35.7084 26.4566 37.0906 24.8505 37.3328 22.91C37.3701 22.6105 37.3701 22.2665 37.3701 21.5784V10.3509C37.3701 9.66283 37.3701 9.31882 37.3328 9.01929C37.0906 7.07877 35.7084 5.47269 33.8257 4.94414C33.5351 4.86255 33.1949 4.81129 32.5145 4.70877C31.0432 4.48707 30.3076 4.37622 29.5729 4.28507C24.9393 3.71019 20.2523 3.71019 15.6186 4.28507C14.884 4.37622 14.1483 4.48707 12.677 4.70877L12.677 4.70877C11.9967 4.81129 11.6565 4.86255 11.3659 4.94414C9.4831 5.47269 8.1009 7.07877 7.85878 9.01929Z" fill="url(#paint31_linear_3_396)"/>
<path fill-rule="evenodd" clip-rule="evenodd" d="M39.1918 10.3513V21.5789C39.1918 21.615 39.1918 21.6506 39.1918 21.6857C39.192 22.2692 39.1921 22.7214 39.1404 23.136C38.8075 25.8042 36.9069 28.0126 34.3181 28.7393C33.9158 28.8523 33.4687 28.9195 32.8918 29.0063C32.857 29.0115 32.8218 29.0168 32.7861 29.0222L32.756 29.0267C31.3131 29.2441 30.5557 29.3582 29.7973 29.4523C25.0147 30.0457 20.1771 30.0457 15.3945 29.4523C14.6361 29.3582 13.8787 29.2441 12.4358 29.0267L12.4057 29.0222C12.37 29.0168 12.3348 29.0115 12.3001 29.0063C11.7231 28.9195 11.276 28.8523 10.8737 28.7393C8.28487 28.0126 6.38434 25.8042 6.05143 23.136C5.9997 22.7214 5.99984 22.2692 6.00002 21.6858C6.00003 21.6506 6.00004 21.615 6.00004 21.5789V10.3513C6.00004 10.3152 6.00003 10.2796 6.00002 10.2445C5.99984 9.66101 5.9997 9.20889 6.05143 8.79425C6.38434 6.12604 8.28487 3.91768 10.8737 3.19092C11.276 3.07798 11.7231 3.01075 12.3 2.924C12.3348 2.91877 12.37 2.91347 12.4057 2.90809L12.4362 2.90351C13.8788 2.68612 14.6362 2.572 15.3945 2.47792C20.1771 1.88456 25.0147 1.88456 29.7973 2.47792C30.5556 2.572 31.313 2.68612 32.7556 2.9035L32.7861 2.90809C32.8218 2.91347 32.857 2.91877 32.8918 2.924C33.4687 3.01075 33.9158 3.07798 34.3181 3.19092C36.9069 3.91768 38.8075 6.12604 39.1404 8.79425C39.1921 9.2089 39.192 9.66103 39.1918 10.2445C39.1918 10.2796 39.1918 10.3152 39.1918 10.3513ZM7.85891 9.01977C7.82154 9.3193 7.82154 9.66332 7.82154 10.3513V21.5789C7.82154 22.2669 7.82154 22.611 7.85891 22.9105C8.10103 24.851 9.48323 26.4571 11.366 26.9856C11.6566 27.0672 11.9968 27.1185 12.6772 27.221L12.6772 27.221C14.1485 27.4427 14.8841 27.5536 15.6187 27.6447C20.2524 28.2196 24.9394 28.2196 29.5731 27.6447C30.3077 27.5536 31.0434 27.4427 32.5147 27.221C33.195 27.1185 33.5352 27.0672 33.8258 26.9856C35.7086 26.4571 37.0908 24.851 37.3329 22.9105C37.3703 22.611 37.3703 22.2669 37.3703 21.5789V10.3513C37.3703 9.66332 37.3703 9.3193 37.3329 9.01977C37.0908 7.07926 35.7086 5.47318 33.8258 4.94462C33.5352 4.86303 33.195 4.81177 32.5147 4.70925C31.0434 4.48755 30.3077 4.3767 29.5731 4.28556C24.9394 3.71067 20.2524 3.71067 15.6187 4.28556C14.8841 4.3767 14.1485 4.48755 12.6772 4.70925L12.6771 4.70925C11.9968 4.81177 11.6566 4.86303 11.366 4.94462C9.48323 5.47318 8.10103 7.07926 7.85891 9.01977Z" fill="url(#paint32_linear_3_396)"/>
<path fill-rule="evenodd" clip-rule="evenodd" d="M37.5724 21.5982C37.5724 22.2677 37.5724 22.6232 37.5334 22.9353C37.2812 24.9566 35.8414 26.6296 33.8802 27.1802C33.5774 27.2652 33.226 27.3182 32.5639 27.4179L32.5411 27.4214C31.0731 27.6426 30.335 27.7538 29.5977 27.8453C24.9475 28.4222 20.2438 28.4222 15.5935 27.8453C14.8563 27.7538 14.1182 27.6426 12.6502 27.4214L12.6273 27.4179C11.9653 27.3182 11.6138 27.2652 11.311 27.1802C9.34979 26.6296 7.91 24.9566 7.6578 22.9353C7.61886 22.6232 7.61886 22.2678 7.61887 21.5983V10.3314C7.61886 9.66193 7.61886 9.3065 7.6578 8.99444C7.91 6.97307 9.34979 5.30007 11.311 4.74949C11.6138 4.66449 11.9653 4.61153 12.6273 4.51178L12.6503 4.50831C14.1182 4.28712 14.8563 4.1759 15.5935 4.08443C20.2438 3.5075 24.9475 3.5075 29.5977 4.08443C30.335 4.1759 31.073 4.28712 32.541 4.50832L32.5639 4.51178C33.226 4.61153 33.5774 4.66449 33.8802 4.74949C35.8414 5.30007 37.2812 6.97307 37.5334 8.99444C37.5724 9.30651 37.5724 9.66196 37.5724 10.3315V21.5982ZM7.85863 9.0195C7.82125 9.31903 7.82125 9.66304 7.82125 10.3511V21.5786C7.82125 22.2667 7.82125 22.6107 7.85863 22.9102C8.10075 24.8507 9.48295 26.4568 11.3657 26.9854C11.6563 27.0669 11.9965 27.1182 12.6769 27.2207C14.1481 27.4424 14.8838 27.5533 15.6185 27.6444C20.2521 28.2193 24.9391 28.2193 29.5728 27.6444C30.3074 27.5533 31.0431 27.4424 32.5144 27.2207C33.1947 27.1182 33.5349 27.0669 33.8255 26.9854C35.7083 26.4568 37.0905 24.8507 37.3326 22.9102C37.37 22.6107 37.37 22.2667 37.37 21.5786V10.3511C37.37 9.66304 37.37 9.31903 37.3326 9.0195C37.0905 7.07898 35.7083 5.4729 33.8255 4.94435C33.5349 4.86276 33.1947 4.8115 32.5144 4.70898C31.0431 4.48728 30.3074 4.37643 29.5728 4.28528C24.9391 3.7104 20.2521 3.7104 15.6185 4.28528C14.8838 4.37643 14.1482 4.48728 12.6769 4.70898C11.9965 4.8115 11.6563 4.86276 11.3657 4.94435C9.48295 5.4729 8.10075 7.07898 7.85863 9.0195Z" fill="url(#paint33_linear_3_396)"/>
<path d="M56.8345 12.135H52.8387V23.205H50.475V12.135H46.5166V10.1033H56.8345V12.135Z" fill="#2B2B48"/>
<path d="M62.432 19.5214H58.68C58.7676 20.3315 58.9927 20.8758 59.3554 21.1543C59.7181 21.4202 60.3121 21.5531 61.1376 21.5531C62.0756 21.5531 63.1761 21.4771 64.4393 21.3252L64.6457 22.8063C63.7827 23.224 62.5195 23.4329 60.8562 23.4329C59.1928 23.4329 58.0109 23.0594 57.3106 22.3126C56.6102 21.5657 56.26 20.3062 56.26 18.534C56.26 16.7238 56.6039 15.4579 57.2918 14.7364C57.9797 14.0022 59.1178 13.6351 60.7061 13.6351C62.1694 13.6351 63.2324 13.9073 63.8953 14.4516C64.5581 14.9832 64.8895 15.7871 64.8895 16.863C64.8895 18.6353 64.0704 19.5214 62.432 19.5214ZM58.6425 17.9074H61.7942C62.3444 17.9074 62.6196 17.5466 62.6196 16.8251C62.6196 16.3187 62.4883 15.9643 62.2256 15.7617C61.963 15.5592 61.4878 15.4579 60.7999 15.4579C59.9995 15.4579 59.4429 15.6288 59.1303 15.9706C58.8301 16.2997 58.6675 16.9453 58.6425 17.9074Z" fill="#2B2B48"/>
<path d="M69.4454 9.91345V20.2999C69.4329 20.667 69.5142 20.9391 69.6893 21.1163C69.8769 21.2936 70.1583 21.3822 70.5335 21.3822H71.3214L71.584 23.0911C71.1588 23.3063 70.5084 23.4139 69.633 23.4139C68.8701 23.4139 68.2635 23.1924 67.8133 22.7493C67.3755 22.3063 67.1567 21.6797 67.1567 20.8695V9.91345H69.4454Z" fill="#2B2B48"/>
<path d="M78.9839 19.5214H75.2319C75.3195 20.3315 75.5446 20.8758 75.9073 21.1543C76.2699 21.4202 76.864 21.5531 77.6894 21.5531C78.6274 21.5531 79.728 21.4771 80.9912 21.3252L81.1975 22.8063C80.3346 23.224 79.0714 23.4329 77.408 23.4329C75.7447 23.4329 74.5628 23.0594 73.8624 22.3126C73.1621 21.5657 72.8119 20.3062 72.8119 18.534C72.8119 16.7238 73.1558 15.4579 73.8437 14.7364C74.5315 14.0022 75.6696 13.6351 77.258 13.6351C78.7212 13.6351 79.7843 13.9073 80.4471 14.4516C81.11 14.9832 81.4414 15.7871 81.4414 16.863C81.4414 18.6353 80.6222 19.5214 78.9839 19.5214ZM75.1944 17.9074H78.346C78.8963 17.9074 79.1715 17.5466 79.1715 16.8251C79.1715 16.3187 79.0401 15.9643 78.7775 15.7617C78.5149 15.5592 78.0396 15.4579 77.3518 15.4579C76.5513 15.4579 75.9948 15.6288 75.6821 15.9706C75.382 16.2997 75.2194 16.9453 75.1944 17.9074Z" fill="#2B2B48"/>
<path d="M92.3774 13.9009L89.2257 22.6544C89.0881 23.0215 88.8317 23.205 88.4566 23.205H86.468C86.0678 23.205 85.8177 23.0215 85.7176 22.6544L82.566 13.9009H84.9672L86.8807 20.034C87.1559 21.0087 87.306 21.5467 87.331 21.648H87.5748L88.0626 20.034L89.9573 13.9009H92.3774Z" fill="#2B2B48"/>
<path d="M101.743 21.4391V23.205H93.7137V21.4391L99.1166 15.6668H93.7888V13.9009H101.668V15.6668L96.2651 21.4391H101.743Z" fill="#2B2B48"/>
<path d="M110 13.6351L109.756 15.7997H109.1C108.449 15.7997 107.436 16.0782 106.06 16.6352V23.205H103.772V13.9009H105.554L105.76 15.2681C107.073 14.1794 108.337 13.6351 109.55 13.6351H110Z" fill="#2B2B48"/>
<defs>
<filter id="filter0_f_3_396" x="0.316722" y="0.0154524" width="44.4426" height="40.2884" filterUnits="userSpaceOnUse" color-interpolation-filters="sRGB">
<feFlood flood-opacity="0" result="BackgroundImageFix"/>
<feBlend mode="normal" in="SourceGraphic" in2="BackgroundImageFix" result="shape"/>
<feGaussianBlur stdDeviation="4.74601" result="effect1_foregroundBlur_3_396"/>
</filter>
<radialGradient id="paint0_radial_3_396" cx="0" cy="0" r="1" gradientUnits="userSpaceOnUse" gradientTransform="translate(22.6972 15.7618) rotate(-180) scale(15.6851 21.6667)">
<stop offset="0.286013" stop-color="white"/>
<stop offset="1" stop-color="white" stop-opacity="0"/>
</radialGradient>
<radialGradient id="paint1_radial_3_396" cx="0" cy="0" r="1" gradientUnits="userSpaceOnUse" gradientTransform="translate(22.6972 15.7618) rotate(-180) scale(15.6851 21.6667)">
<stop offset="0.286013" stop-color="white"/>
<stop offset="1" stop-color="white" stop-opacity="0"/>
</radialGradient>
<radialGradient id="paint2_radial_3_396" cx="0" cy="0" r="1" gradientUnits="userSpaceOnUse" gradientTransform="translate(22.6972 15.7618) rotate(-180) scale(15.6851 21.6667)">
<stop offset="0.286013" stop-color="white"/>
<stop offset="1" stop-color="white" stop-opacity="0"/>
</radialGradient>
<radialGradient id="paint3_radial_3_396" cx="0" cy="0" r="1" gradientUnits="userSpaceOnUse" gradientTransform="translate(22.6972 15.7618) rotate(-180) scale(15.6851 21.6667)">
<stop offset="0.286013" stop-color="white"/>
<stop offset="1" stop-color="white" stop-opacity="0"/>
</radialGradient>
<radialGradient id="paint4_radial_3_396" cx="0" cy="0" r="1" gradientUnits="userSpaceOnUse" gradientTransform="translate(22.6972 15.7618) rotate(-180) scale(15.6851 21.6667)">
<stop offset="0.286013" stop-color="white"/>
<stop offset="1" stop-color="white" stop-opacity="0"/>
</radialGradient>
<radialGradient id="paint5_radial_3_396" cx="0" cy="0" r="1" gradientUnits="userSpaceOnUse" gradientTransform="translate(22.6972 15.7618) rotate(-180) scale(15.6851 21.6667)">
<stop offset="0.286013" stop-color="white"/>
<stop offset="1" stop-color="white" stop-opacity="0"/>
</radialGradient>
<radialGradient id="paint6_radial_3_396" cx="0" cy="0" r="1" gradientUnits="userSpaceOnUse" gradientTransform="translate(22.6972 15.7618) rotate(-180) scale(15.6851 21.6667)">
<stop offset="0.286013" stop-color="white"/>
<stop offset="1" stop-color="white" stop-opacity="0"/>
</radialGradient>
<radialGradient id="paint7_radial_3_396" cx="0" cy="0" r="1" gradientUnits="userSpaceOnUse" gradientTransform="translate(22.6972 15.7618) rotate(-180) scale(15.6851 21.6667)">
<stop offset="0.286013" stop-color="white"/>
<stop offset="1" stop-color="white" stop-opacity="0"/>
</radialGradient>
<radialGradient id="paint8_radial_3_396" cx="0" cy="0" r="1" gradientUnits="userSpaceOnUse" gradientTransform="translate(22.6972 15.7618) rotate(-180) scale(15.6851 21.6667)">
<stop offset="0.286013" stop-color="white"/>
<stop offset="1" stop-color="white" stop-opacity="0"/>
</radialGradient>
<radialGradient id="paint9_radial_3_396" cx="0" cy="0" r="1" gradientUnits="userSpaceOnUse" gradientTransform="translate(22.6972 15.7618) rotate(-180) scale(15.6851 21.6667)">
<stop offset="0.286013" stop-color="white"/>
<stop offset="1" stop-color="white" stop-opacity="0"/>
</radialGradient>
<radialGradient id="paint10_radial_3_396" cx="0" cy="0" r="1" gradientUnits="userSpaceOnUse" gradientTransform="translate(22.6972 15.7618) rotate(-180) scale(15.6851 21.6667)">
<stop offset="0.286013" stop-color="white"/>
<stop offset="1" stop-color="white" stop-opacity="0"/>
</radialGradient>
<radialGradient id="paint11_radial_3_396" cx="0" cy="0" r="1" gradientUnits="userSpaceOnUse" gradientTransform="translate(22.6972 15.7618) rotate(-180) scale(15.6851 21.6667)">
<stop offset="0.286013" stop-color="white"/>
<stop offset="1" stop-color="white" stop-opacity="0"/>
</radialGradient>
<radialGradient id="paint12_radial_3_396" cx="0" cy="0" r="1" gradientUnits="userSpaceOnUse" gradientTransform="translate(22.6972 15.7618) rotate(-180) scale(15.6851 21.6667)">
<stop offset="0.286013" stop-color="white"/>
<stop offset="1" stop-color="white" stop-opacity="0"/>
</radialGradient>
<radialGradient id="paint13_radial_3_396" cx="0" cy="0" r="1" gradientUnits="userSpaceOnUse" gradientTransform="translate(22.6972 15.7618) rotate(-180) scale(15.6851 21.6667)">
<stop offset="0.286013" stop-color="white"/>
<stop offset="1" stop-color="white" stop-opacity="0"/>
</radialGradient>
<radialGradient id="paint14_radial_3_396" cx="0" cy="0" r="1" gradientUnits="userSpaceOnUse" gradientTransform="translate(22.6972 15.7618) rotate(-180) scale(15.6851 21.6667)">
<stop offset="0.286013" stop-color="white"/>
<stop offset="1" stop-color="white" stop-opacity="0"/>
</radialGradient>
<radialGradient id="paint15_radial_3_396" cx="0" cy="0" r="1" gradientUnits="userSpaceOnUse" gradientTransform="translate(22.6972 15.7618) rotate(-180) scale(15.6851 21.6667)">
<stop offset="0.286013" stop-color="white"/>
<stop offset="1" stop-color="white" stop-opacity="0"/>
</radialGradient>
<radialGradient id="paint16_radial_3_396" cx="0" cy="0" r="1" gradientUnits="userSpaceOnUse" gradientTransform="translate(22.6972 15.7618) rotate(-180) scale(15.6851 21.6667)">
<stop offset="0.286013" stop-color="white"/>
<stop offset="1" stop-color="white" stop-opacity="0"/>
</radialGradient>
<radialGradient id="paint17_radial_3_396" cx="0" cy="0" r="1" gradientUnits="userSpaceOnUse" gradientTransform="translate(22.6972 15.7618) rotate(-180) scale(15.6851 21.6667)">
<stop offset="0.286013" stop-color="white"/>
<stop offset="1" stop-color="white" stop-opacity="0"/>
</radialGradient>
<radialGradient id="paint18_radial_3_396" cx="0" cy="0" r="1" gradientUnits="userSpaceOnUse" gradientTransform="translate(22.6972 15.7618) rotate(-180) scale(15.6851 21.6667)">
<stop offset="0.286013" stop-color="white"/>
<stop offset="1" stop-color="white" stop-opacity="0"/>
</radialGradient>
<radialGradient id="paint19_radial_3_396" cx="0" cy="0" r="1" gradientUnits="userSpaceOnUse" gradientTransform="translate(22.6972 15.7618) rotate(-180) scale(15.6851 21.6667)">
<stop offset="0.286013" stop-color="white"/>
<stop offset="1" stop-color="white" stop-opacity="0"/>
</radialGradient>
<radialGradient id="paint20_radial_3_396" cx="0" cy="0" r="1" gradientUnits="userSpaceOnUse" gradientTransform="translate(22.6972 15.7618) rotate(-180) scale(15.6851 21.6667)">
<stop offset="0.286013" stop-color="white"/>
<stop offset="1" stop-color="white" stop-opacity="0"/>
</radialGradient>
<radialGradient id="paint21_radial_3_396" cx="0" cy="0" r="1" gradientUnits="userSpaceOnUse" gradientTransform="translate(22.6972 15.7618) rotate(-180) scale(15.6851 21.6667)">
<stop offset="0.286013" stop-color="white"/>
<stop offset="1" stop-color="white" stop-opacity="0"/>
</radialGradient>
<radialGradient id="paint22_radial_3_396" cx="0" cy="0" r="1" gradientUnits="userSpaceOnUse" gradientTransform="translate(22.6972 15.7618) rotate(-180) scale(15.6851 21.6667)">
<stop offset="0.286013" stop-color="white"/>
<stop offset="1" stop-color="white" stop-opacity="0"/>
</radialGradient>
<radialGradient id="paint23_radial_3_396" cx="0" cy="0" r="1" gradientUnits="userSpaceOnUse" gradientTransform="translate(22.6972 15.7618) rotate(-180) scale(15.6851 21.6667)">
<stop offset="0.286013" stop-color="white"/>
<stop offset="1" stop-color="white" stop-opacity="0"/>
</radialGradient>
<radialGradient id="paint24_radial_3_396" cx="0" cy="0" r="1" gradientUnits="userSpaceOnUse" gradientTransform="translate(22.6972 15.7618) rotate(-180) scale(15.6851 21.6667)">
<stop offset="0.286013" stop-color="white"/>
<stop offset="1" stop-color="white" stop-opacity="0"/>
</radialGradient>
<radialGradient id="paint25_radial_3_396" cx="0" cy="0" r="1" gradientUnits="userSpaceOnUse" gradientTransform="translate(22.6972 15.7618) rotate(-180) scale(15.6851 21.6667)">
<stop offset="0.286013" stop-color="white"/>
<stop offset="1" stop-color="white" stop-opacity="0"/>
</radialGradient>
<radialGradient id="paint26_radial_3_396" cx="0" cy="0" r="1" gradientUnits="userSpaceOnUse" gradientTransform="translate(22.6972 15.7618) rotate(-180) scale(15.6851 21.6667)">
<stop offset="0.286013" stop-color="white"/>
<stop offset="1" stop-color="white" stop-opacity="0"/>
</radialGradient>
<radialGradient id="paint27_radial_3_396" cx="0" cy="0" r="1" gradientUnits="userSpaceOnUse" gradientTransform="translate(22.6972 15.7618) rotate(-180) scale(15.6851 21.6667)">
<stop offset="0.286013" stop-color="white"/>
<stop offset="1" stop-color="white" stop-opacity="0"/>
</radialGradient>
<radialGradient id="paint28_radial_3_396" cx="0" cy="0" r="1" gradientUnits="userSpaceOnUse" gradientTransform="translate(22.6972 15.7618) rotate(-180) scale(15.6851 21.6667)">
<stop offset="0.286013" stop-color="white"/>
<stop offset="1" stop-color="white" stop-opacity="0"/>
</radialGradient>
<radialGradient id="paint29_radial_3_396" cx="0" cy="0" r="1" gradientUnits="userSpaceOnUse" gradientTransform="translate(22.6972 15.7618) rotate(-180) scale(15.6851 21.6667)">
<stop offset="0.286013" stop-color="white"/>
<stop offset="1" stop-color="white" stop-opacity="0"/>
</radialGradient>
<linearGradient id="paint30_linear_3_396" x1="22.5958" y1="28.1079" x2="22.5958" y2="4.73205" gradientUnits="userSpaceOnUse">
<stop stop-color="#2B2B48"/>
<stop offset="1" stop-color="white" stop-opacity="0"/>
</linearGradient>
<linearGradient id="paint31_linear_3_396" x1="22.5958" y1="3.85391" x2="22.5958" y2="26.6912" gradientUnits="userSpaceOnUse">
<stop stop-color="#2B2B48"/>
<stop offset="1" stop-color="#2B2B48" stop-opacity="0"/>
</linearGradient>
<linearGradient id="paint32_linear_3_396" x1="22.5959" y1="30.0311" x2="22.5959" y2="2.20268" gradientUnits="userSpaceOnUse">
<stop stop-color="#CCD1D4"/>
<stop offset="1" stop-color="#F2F2F4"/>
</linearGradient>
<linearGradient id="paint33_linear_3_396" x1="22.5956" y1="28.1081" x2="22.5956" y2="3.82151" gradientUnits="userSpaceOnUse">
<stop stop-color="white"/>
<stop offset="1" stop-color="white" stop-opacity="0"/>
</linearGradient>
</defs>
</svg>
